<?xml version="1.0" encoding="UTF-8"?>
<svg id="Layer_2" data-name="Layer 2" xmlns="http://www.w3.org/2000/svg" viewBox="0 0 174.52 28.66">
  <defs>
    <style>
      .cls-1 {
        fill: #fff;
        fill-rule: evenodd;
      }
    </style>
  </defs>
  <g id="Layer_1-2" data-name="Layer 1">
    <g>
      <path class="cls-1" d="m113.77,2.5c.34,0,.93.08.93-.45,0-.42-.34-.48-.7-.48h-.73v.93h.51Zm1.23,1.46h-.39l-.76-1.21h-.59v1.21h-.33V1.34h1.15c.25,0,.45.03.65.14.17.09.28.31.28.56,0,.53-.37.7-.79.7l.79,1.21h0Zm.84-1.32c0-1.12-.93-2.02-2.02-2.02s-2.07.9-2.07,2.02.95,2.07,2.07,2.07,2.02-.92,2.02-2.07h0Zm-4.35,0c0-1.26,1.01-2.3,2.33-2.3s2.33,1.04,2.33,2.3-1.04,2.35-2.33,2.35-2.33-1.06-2.33-2.35h0Z"/>
      <path class="cls-1" d="m172.16,2.5c.34,0,.93.08.93-.45,0-.42-.37-.48-.67-.48h-.76v.93h.5Zm1.21,1.46h-.37l-.78-1.21h-.56v1.21h-.31V1.34h1.12c.22,0,.42.03.64.14.2.09.28.31.28.56,0,.53-.36.7-.81.7l.79,1.21h0Zm.87-1.32c0-1.12-.9-2.02-2.05-2.02s-2.02.9-2.02,2.02.9,2.07,2.02,2.07,2.05-.92,2.05-2.07h0Zm-4.35,0c0-1.26.98-2.3,2.3-2.3s2.33,1.04,2.33,2.3-1.04,2.35-2.33,2.35-2.3-1.06-2.3-2.35h0Z"/>
      <path class="cls-1" d="m33.49,24.04c-3.4,0-6.14-2.72-6.14-6.14s2.75-6.14,6.14-6.14,6.14,2.75,6.14,6.14-2.75,6.14-6.14,6.14h0Zm-23.06,0c-3.39,0-6.11-2.72-6.11-6.14s2.72-6.14,6.11-6.14,6.14,2.75,6.14,6.14-2.75,6.14-6.14,6.14h0Zm77.3,0c-3.39,0-6.11-2.72-6.11-6.14s2.72-6.14,6.11-6.14,6.12,2.75,6.12,6.14-2.75,6.14-6.12,6.14h0Zm-23.31,0c-3.42,0-6.14-2.72-6.14-6.14s2.72-6.14,6.14-6.14,6.14,2.75,6.14,6.14-2.75,6.14-6.14,6.14h0Zm-24.77,2.3c-1.74,1.29-3.87,2.02-6.17,2.02-5.78,0-10.46-4.68-10.46-10.46s4.68-10.43,10.46-10.43c2.3,0,4.43.76,6.14,2.02V.87h4.55v27.32h-4.52v-1.85h0Zm72.98-12.2c-.25-1.71-1.63-2.95-3.81-2.95-1.15,0-3.65.39-3.65,1.88,0,2.22,3.79,2.41,4.71,2.47,6.06.56,7.83,3.23,7.83,6.37,0,2.33-1.18,4.07-2.86,5.3-1.43,1.04-4.38,1.46-6.17,1.46-3.99,0-8.02-2.18-8.56-7.13h4.46c.25,2.33,2.69,3.2,4.07,3.2,2.49,0,4.26-1.06,4.26-2.3,0-1.96-1.82-2.38-4.46-2.66-1.48-.17-4.32-.67-5.5-1.66-1.32-1.04-2.44-2.22-2.44-4.23,0-3.62,2.83-6.48,8.41-6.51,4.63-.03,8.13,2.72,8.24,6.73l-4.54.03h0ZM16.6,26.34c-1.74,1.29-3.87,2.02-6.17,2.02-5.8,0-10.43-4.68-10.43-10.46S4.63,7.46,10.43,7.46c2.3,0,4.43.76,6.17,2.02v-1.99h4.49v20.7h-4.49v-1.85h0ZM51.97,6.06V.84h-4.52v5.22h4.52Zm0,22.13V7.49h-4.52v20.7h4.52Zm41.88-1.85c-1.68,1.29-3.81,2.02-6.12,2.02-5.78,0-10.46-4.68-10.46-10.46s4.68-10.43,10.46-10.43c2.3,0,4.43.76,6.12,2.02v-1.99h4.54v20.7h-4.49l-.05-1.85h0Zm-23.25,0c-1.71,1.29-3.87,2.02-6.17,2.02-5.75,0-10.46-4.68-10.46-10.46s4.71-10.43,10.46-10.43c2.3,0,4.43.76,6.17,2.02V.87h4.49v27.32h-4.49v-1.85h0Z"/>
      <path class="cls-1" d="m152.62,15.54c.25-4.91-1.21-10.3-5.14-15.54-3.81,4.91-5.16,10.49-4.82,15.54h9.96Zm-9.37,3.9c-.17-.73-.31-1.46-.42-2.21h9.62c-.11.76-.25,1.48-.42,2.21h-8.78Zm2.24,5.56c.65,1.07,1.35,2.02,2.13,2.89.79-.87,1.49-1.85,2.13-2.89h-4.27Zm22.13-9.42c1.12-2.33,1.91-4.94,2.27-7.85-6.53.56-11.67,3.73-15.12,7.85h12.85Zm-.87,1.66c-.45.78-.93,1.48-1.43,2.21l-13.1-.05c.42-.7.84-1.49,1.32-2.16h13.21Zm-5.16,6.09c.79-.65,1.6-1.4,2.3-2.19l-32.54-.03c.73.81,1.54,1.57,2.38,2.24l27.85-.03h0Zm-11.36,1.68c-.19.95-.31,1.91-.34,2.83,3.11-.14,6.34-1.09,9.26-2.83h-8.92Zm-21.74-7.77c.48.78.95,1.48,1.49,2.21h13.04c-.37-.76-.81-1.48-1.29-2.21h-13.24Zm7.63,7.77c2.92,1.74,6.12,2.69,9.23,2.83-.03-.92-.14-1.88-.31-2.83h-8.92Zm4.35-9.42c-3.42-4.13-8.52-7.29-15.06-7.85.37,2.92,1.15,5.52,2.22,7.85h12.84Z"/>
    </g>
  </g>
</svg>