<?xml version="1.0" encoding="UTF-8"?>
<svg id="Layer_2" data-name="Layer 2" xmlns="http://www.w3.org/2000/svg" viewBox="0 0 1227.17 346.17">
  <defs>
    <style>
      .cls-1 {
        fill: #fff;
      }
    </style>
  </defs>
  <g id="Layer_1-2" data-name="Layer 1">
    <g>
      <path class="cls-1" d="m621.61,158.28c23.28,27.94,46.15,55.4,69.86,83.85,3.49-10.68,6.98-20.32,9.77-30.16,2.75-9.71,4.8-19.62,7.34-30.23,8.03,9.24,15.72,17.92,23.13,26.83.87,1.05.54,3.49.14,5.14-4.49,18.53-11.57,36.04-21.38,52.91,20.77,24.14,41.54,48.28,63.13,73.38-13.95,0-26.67.1-39.39-.14-1.42-.03-3.02-1.79-4.16-3.08-12.71-14.31-25.34-28.68-38.4-43.5-1.22,1.61-2.31,2.98-3.33,4.39-35.48,49.09-95.02,56.66-137.6,39.76-69.17-27.46-73.9-111.05-27.49-152.25,13.94-12.37,29.52-22.12,45.9-30.75,2.03-1.07,4.06-2.15,6.06-3.2-7.66-10.33-15.3-20.2-22.47-30.4-9.94-14.16-16.02-29.71-16.49-47.32-.79-29.58,12.44-50.93,38.34-64.12,23.21-11.81,47.52-12.32,71.52-2.41,37.98,15.69,52.74,59.13,33.5,97.1-10.27,20.28-26.7,34.58-45.45,46.59-3.91,2.5-7.93,4.82-12.55,7.61Zm-28.77,13.44c-4.8,2.77-9.17,5.17-13.41,7.76-14.1,8.61-27.6,17.92-38.54,30.6-24.64,28.54-20.97,84.07,27.06,101.36,38.62,13.9,85.3-3.77,105.46-40.75-26.67-32.76-53.44-65.65-80.57-98.97Zm11.34-34.85c14.52-7.4,27.33-15.92,37.27-28.14,10.91-13.41,15.85-28.55,13.07-45.97-3.93-24.62-25.51-40.18-50.42-36.13-22.95,3.74-37.96,25.49-34.07,49.47,3.94,24.29,18.79,42.42,34.15,60.76Z"/>
      <path class="cls-1" d="m0,339.6V6.24h30.97v136.06c1.37-1.6,1.93-2.06,2.25-2.64,32.36-58.47,124.35-58.12,156.8,6.13,14.09,27.9,18.07,57.54,16.1,88.24-1.61,25.13-8.23,48.77-22.22,70.05-33.76,51.34-95.13,48.17-126.5,28.06-9.69-6.21-17.52-14.26-23.62-24.01-.5-.79-1.09-1.52-2.43-3.38v34.84H0Zm174.98-118.11c-.02-22.18-2.82-43.82-13.42-63.74-14.1-26.5-40.81-39.15-70.38-33.81-26.58,4.8-43.34,21.14-53.4,45.23-9.27,22.2-10.58,45.51-8.46,69.11,1.56,17.4,6,34.07,15.55,48.95,15.64,24.35,38.31,34.68,66.81,31.9,26.12-2.55,42.96-17.76,53.15-41.12,7.86-18.01,10.15-37.07,10.14-56.52Z"/>
      <path class="cls-1" d="m1071.2,339.19h-31.06V5.8h30.96v130.41c1.42-1.57,2.09-2.17,2.59-2.88,19.87-28.44,47.82-38.96,81.46-36.35,7.08.55,14.26,1.81,21.03,3.93,28.6,8.93,43.54,29.74,48.76,58.25,1.43,7.81,2.08,15.86,2.1,23.81.19,50.78.1,101.55.1,152.33,0,1.32,0,2.64,0,4.34h-31.46v-6.58c0-47.28.12-94.56-.11-141.84-.04-8.93-.66-18.03-2.44-26.76-5.53-27.13-22.61-41.03-50.46-42.01-35.89-1.27-61.05,19.26-68.32,56.63-2.05,10.54-2.94,21.46-3.03,32.22-.34,40.62-.14,81.24-.14,121.86,0,1.95,0,3.9,0,6.03Z"/>
      <path class="cls-1" d="m289.51,180.81c-9.99-2.68-19.26-5.16-28.8-7.72-2.38-23.04,3.46-42.65,22.39-57.11,12.35-9.43,26.66-14.14,41.8-16.48,17.55-2.72,35.12-3.13,52.61.7,34.42,7.54,55.71,32.26,56.91,67.51.84,24.61.42,49.26.57,73.89.17,26.29.22,52.59.63,78.88.1,6.43,1.41,12.85,2.21,19.65-9.03,0-18.33.14-27.61-.17-1.18-.04-3.07-2.34-3.27-3.79-.83-5.91-1.16-11.9-1.6-17.87-.13-1.78-.02-3.57-.02-6.93-2.18,2.49-3.4,3.87-4.6,5.27-27.78,32.28-83.15,39.35-117.97,14.88-22.92-16.11-30.63-38.99-27.82-65.89,2.74-26.26,18.36-42.59,42.01-52.33,18.2-7.49,37.54-9.93,56.74-13.02,12.15-1.95,24.33-3.75,36.43-5.97,9.89-1.82,14.42-7.19,14.48-17.28.04-6.61.01-13.43-1.5-19.8-3.64-15.31-13.76-25.23-28.61-29.94-18.67-5.92-37.5-5.39-55.91,1-19.06,6.61-28.47,20.16-29.03,40.33-.1,3.81-.01,7.62-.01,12.17Zm115.21,34.72c-2.06.37-3.67.64-5.26.96-17.91,3.6-35.88,6.93-53.71,10.9-12.11,2.7-24.47,5.15-35.9,9.74-16.98,6.81-24.31,20.91-23.75,38.96.6,19.03,9,33.02,27.22,40.23,11.34,4.48,23.09,4.5,34.9,2.77,25.71-3.77,43.15-17.61,51.48-42.53,6.65-19.88,4.78-40.36,5.03-61.03Z"/>
      <path class="cls-1" d="m973.62,143.43c-8.8,7.44-16.28,13.76-24.24,20.49-1.01-1.81-1.89-3.31-2.69-4.84-16.84-31.95-55.58-45.43-88.76-30.88-17.38,7.62-25.89,24.93-20.62,42.03,2.77,8.97,8.79,15.69,17.03,19.3,10.74,4.7,22.03,8.25,33.27,11.67,17.47,5.3,35.42,9.19,52.53,15.43,9.11,3.32,17.89,9.24,25.08,15.86,27.72,25.56,24.51,69.23-6.2,92.94-15.23,11.75-32.89,17.3-51.71,19.28-33.32,3.51-63.86-3.71-90.51-24.73-10.55-8.32-19.06-18.43-25.86-30.51,8.96-6.22,17.68-12.27,26.73-18.55,2.35,3.46,4.53,6.73,6.77,9.96,28.22,40.69,72.95,42.53,102.47,30.25,12.96-5.39,22.34-14.49,24.52-29.15,1.84-12.38-2.19-22.65-12.03-30.45-9.62-7.62-21.09-11.13-32.7-14.23-18.95-5.05-38.07-9.52-56.8-15.27-13.16-4.04-24.97-11.12-33.86-22.05-20.23-24.87-14.98-64.25,11.3-84.7,16.87-13.13,36.53-17.98,57.46-18.35,26.18-.46,50.31,5.75,69.8,24.24,6.91,6.56,12.49,14.51,19.03,22.25Z"/>
    </g>
  </g>
</svg>