<svg xmlns="http://www.w3.org/2000/svg" width="96.416" height="15.549" viewBox="0 0 96.416 15.549">
  <path id="Path_2" data-name="Path 2" d="M10.6,95.492a6.427,6.427,0,0,1-.024-12.849,6.3,6.3,0,0,1,5.171,2.784H17.4a7.427,7.427,0,0,0-1.832-2.351A8.027,8.027,0,0,0,10.6,81.293a7.774,7.774,0,1,0,.024,15.549,7.825,7.825,0,0,0,4.8-1.712,9.681,9.681,0,0,0,2.037-2.5H15.8A6.419,6.419,0,0,1,10.6,95.492Zm17.116-8.136a5.2,5.2,0,0,0-4.194-2.181,5.689,5.689,0,1,0,0,11.379,5.022,5.022,0,0,0,4.194-2.158v1.9h1.362V85.439H27.713ZM23.447,95.3a4.438,4.438,0,0,1,0-8.871,4.439,4.439,0,0,1,0,8.871Zm7.28,1h1.459V81.606H30.727Zm6.967-1.724-3.688-9.136H32.559L36.982,96.3h1.47l4.412-10.86H41.442l-3.749,9.136ZM43.467,96.3h1.458V85.439H43.467V96.3Zm0-12.258h1.458V81.606H43.467Zm7.739,1.133a4.378,4.378,0,0,0-3.254,1.688V85.439H46.6V96.3h1.434V89.681a3.251,3.251,0,0,1,3.194-3.254c2.205,0,3.314,1.917,3.314,3.894V96.3h1.35V90.321C55.894,87.5,54.243,85.174,51.206,85.174ZM69.43,81.606,62.8,90.031V81.606H61.367V96.3H62.8V92.261l1.881-2.338L69.466,96.3h1.821L65.6,88.766l5.69-7.16ZM71.817,96.3H73.24V81.606H71.817Zm13.2-8.124a5.721,5.721,0,1,0-5.026,8.377A5.86,5.86,0,0,0,84,94.937a6.325,6.325,0,0,0,1.386-2.194h-1.53a4.267,4.267,0,0,1-8.149-1.362H85.727A6.38,6.38,0,0,0,85.016,88.175Zm-9.257,1.953a4.418,4.418,0,0,1,4.232-3.7,4.221,4.221,0,0,1,4.255,3.7ZM86.788,96.3h1.434V85.439H86.788V96.3Zm0-12.21h1.434V81.606H86.788Zm7.739,1.084a4.432,4.432,0,0,0-3.292,1.688V85.439H89.861V96.3h1.447V89.681a3.277,3.277,0,0,1,3.242-3.254c2.194,0,3.352,1.917,3.352,3.894V96.3h1.35V90.321c0-2.821-1.676-5.147-4.725-5.147Z" transform="translate(-2.835 -81.293)" fill="#1c252f" fill-rule="evenodd"/>
</svg>
