<?xml version="1.0" encoding="UTF-8"?>
<svg id="Layer_2" data-name="Layer 2" xmlns="http://www.w3.org/2000/svg" viewBox="0 0 185.71 26.58">
  <defs>
    <style>
      .cls-1 {
        fill: #fff;
      }
    </style>
  </defs>
  <g id="Layer_1-2" data-name="Layer 1">
    <g>
      <path class="cls-1" d="m107.39,26.53c-5.42,0-10.83-.03-16.25.02-1.1,0-1.49-.3-1.39-1.42.1-1.12.1-2.25,0-3.37-.1-1.07.29-1.33,1.32-1.33,8.58.03,17.16.01,25.75.01,2,0,4-.02,6,.04.89.03,1.27-.18,1.26-1.17-.02-2.78.02-2.78-2.74-2.78-8.25,0-16.5-.02-24.75.01-.99,0-1.74-.27-2.42-1.01-1.16-1.25-2.46-2.38-3.58-3.66-.44-.51-.68-1.27-.81-1.96-.6-3.16.69-5.46,3.01-7.61,1.56-1.45,2.98-2.1,5.11-2.08,9.41.12,18.83.07,28.25.03,1.09,0,1.49.27,1.4,1.4-.1,1.2-.04,2.42.01,3.62.03.75-.22,1.05-1,1.03-1.62-.04-3.25,0-4.87,0-8.25,0-16.5,0-24.75-.02-.86,0-1.18.22-1.18,1.11,0,2.75-.04,2.74,2.75,2.74,8.33,0,16.66.02,25,0,1.08,0,1.94.25,2.59,1.17.33.47.75.91,1.21,1.25,2.57,1.87,3.54,4.37,2.98,7.46-.11.61-.32,1.31-.72,1.75-1.31,1.45-2.7,2.83-4.14,4.16-.38.35-1.03.56-1.55.56-5.5.04-11,.02-16.5.02h0Z"/>
      <path class="cls-1" d="m64.92.03c4.5,0,9,.02,13.5-.02,1.07,0,1.91.25,2.64,1.09.88,1,1.82,1.96,2.84,2.81,1.09.91,1.47,1.93,1.44,3.36-.09,4.25,0,8.5-.07,12.75-.01.66-.34,1.45-.78,1.95-1.21,1.37-2.52,2.66-3.88,3.9-.41.38-1.09.65-1.65.65-9.21.04-18.42.04-27.63-.02-.7,0-1.52-.4-2.06-.87-1.29-1.12-2.5-2.34-3.61-3.63-.46-.54-.82-1.37-.83-2.07-.07-4.37,0-8.75-.06-13.13-.01-1,.28-1.73,1.01-2.41,1.19-1.11,2.3-2.29,3.41-3.48C49.83.26,50.5,0,51.41,0c4.5.04,9,.02,13.5.02h0Zm14.36,6.34h-28.17c-.04.26-.09.42-.09.58,0,4.13,0,8.25-.03,12.37,0,1,.53,1,1.27,1,7.92-.02,15.84-.02,23.75-.02,3.23,0,3.24,0,3.27-3.26.02-3.53,0-7.06,0-10.68Z"/>
      <path class="cls-1" d="m134.85.06c1.76,0,3.42,0,5.08,0,.87,0,.85.6.85,1.21,0,2.2,0,4.4,0,6.68h28.49V.07c1.84,0,3.57-.04,5.3.05.24.01.64.69.64,1.06.03,5.95.01,11.91.01,17.86,0,2.17-.02,4.33.05,6.49.03.81-.29,1.03-1.01,1.02-1.29-.02-2.59-.07-3.87.02-1.07.07-1.26-.44-1.24-1.34.07-3.08.1-6.16.14-9.24,0-.58,0-1.15,0-1.81h-28.44c-.04.49-.1.97-.1,1.45,0,3.16-.02,6.33.04,9.49.02,1.04-.21,1.54-1.38,1.44-1.28-.11-2.58-.04-3.87-.02-.63.01-.89-.22-.89-.88.04-8.33.05-16.66.08-24.99,0-.16.06-.32.11-.62Z"/>
      <path class="cls-1" d="m0,26.38c1.7-1.41,3.33-2.57,4.71-3.96,1.59-1.61,3.38-2.04,5.59-2.01,7.49.12,14.99.05,22.49.06,1.69,0,1.63,0,1.62-1.64-.04-5.95-.05-11.91-.06-17.86,0-.28.08-.56.12-.89h5.82c0,.46,0,.9,0,1.33.03,6.2.08,12.41.04,18.61,0,.66-.36,1.45-.8,1.96-1.17,1.35-2.45,2.61-3.76,3.82-.42.38-1.08.71-1.63.71-11.04.04-22.07.02-33.11.02-.27,0-.54-.07-1.05-.15Z"/>
      <path class="cls-1" d="m179.84.06c1.73,0,3.43-.02,5.12,0,.92.02.71.77.71,1.31,0,4.83-.01,9.67-.01,14.5,0,3.08-.04,6.17.05,9.25.04,1.19-.34,1.53-1.49,1.43-1.2-.1-2.42-.05-3.62-.02-.68.02-.98-.22-.98-.93.03-8.29.05-16.58.08-24.87,0-.2.08-.4.14-.67Z"/>
    </g>
  </g>
</svg>