<?xml version="1.0" encoding="UTF-8"?>
<svg id="Layer_2" data-name="Layer 2" xmlns="http://www.w3.org/2000/svg" viewBox="0 0 482.16 239.29">
  <defs>
    <style>
      .cls-1 {
        fill: #fff;
      }
    </style>
  </defs>
  <g id="Layer_1-2" data-name="Layer 1">
    <g>
      <path class="cls-1" d="m248.52,133.14c-1.8.33-3.5.57-5.18.95-12.79,2.9-25.57,5.8-38.35,8.75-6.18,1.43-12.34,3.01-18.52,4.45-5.33,1.25-10.69,2.33-16.01,3.62-5.56,1.35-11.07,2.86-16.61,4.28-4.5,1.15-9.01,2.24-13.5,3.43-5.45,1.45-10.93,2.82-16.31,4.51-11.15,3.51-22.32,7-33.34,10.9-8.73,3.09-17.08,7.11-25.04,11.9-1.12.67-2.37,1.19-3.63,1.55-.51.15-1.2-.29-1.8-.45.19-.64.19-1.51.61-1.87,1.51-1.29,3.11-2.49,4.78-3.58,12.9-8.45,26.96-14.43,41.49-19.42,21.07-7.23,42.67-12.5,64.25-17.89,8.17-2.04,16.4-3.86,24.61-5.76,12.65-2.92,25.31-5.83,37.97-8.72,5.91-1.34,11.83-2.63,17.75-3.88,1.38-.29,2.22-.95,2.95-2.16,2.48-4.12,5.1-8.16,7.65-12.24.66-1.05,1.24-2.15,1.97-3.42-1.73.69-3.26,1.33-4.81,1.92-2.24.86-4.46,1.82-6.76,2.48-4.44,1.28-12.37-.26-15.94-5.5-1.39-2.05-1.71-4.38-1.95-6.73-.78-7.59.4-14.96,2.55-22.23,2.63-8.89,6.56-17.17,11.38-25.06,8.87-14.51,20.24-26.91,32.65-38.43,4.56-4.23,9.49-7.97,15.03-10.78C300.63,1.61,305.06-.02,309.87,0c8.58.04,13.15,3.6,16.18,10.83,2.18,5.21,3.39,10.67,3.78,16.29.3,4.3.36,8.62.53,12.93.02.49,0,.99,0,1.69,1.31-.35,2.48-.71,3.67-.97,1.9-.41,3.8-.86,5.73-1.09.8-.09,1.75.17,2.48.56,2.19,1.16,2.29,3.14.35,4.65-1.53,1.2-3.3,1.72-5.18,1.96-2.57.32-4.87,1.33-7.08,2.6-.36.2-.69.77-.71,1.18-.38,9.04-2.22,17.85-4.04,26.67-.35,1.69-.79,3.35-1.19,5.01,1.14.54,1.69-.08,2.18-.59,2.79-2.85,5.68-5.61,8.27-8.63,6.8-7.93,12.72-16.5,17.78-25.65.82-1.49,1.48-3.06,2.29-4.56,1.15-2.14,3.74-2.43,5.27-.68.59.67.58,1.27.22,2.03-2.18,4.52-4.38,9.03-6.47,13.59-2.26,4.94-4.33,9.97-5.48,15.31-.18.83-.15,1.7-.22,2.56.11.1.23.2.34.3.67-.39,1.5-.63,1.97-1.18,4.77-5.54,9.42-11.18,14.23-16.68,3.77-4.32,7.63-8.55,11.6-12.69,1.2-1.26,2.83-2.16,4.36-3.03,1.32-.76,2.71-.42,3.82.55,1.13.97,1.75,2.21,1.29,3.77-.81,2.74-1.65,5.47-2.44,8.22-.17.58-.17,1.21.01,1.98.76-.72,1.6-1.36,2.26-2.16,2.62-3.17,5.08-6.47,7.79-9.56,2.05-2.34,4.36-4.44,6.58-6.63,1.04-1.03,2.21-1.66,3.79-1.48,1.31.15,2.31.72,2.3,1.98-.02,1.96-.27,3.94-.67,5.85-.39,1.9-1.1,3.73-1.66,5.59-.05.18-.03.38-.05.57.1.07.19.13.29.2,1.13-1.23,2.29-2.45,3.39-3.71,2.33-2.65,4.59-5.35,6.95-7.98.69-.76,1.6-1.31,2.41-1.97,2.65-2.14,6.49-.27,7.55,1.75.42.8.54,1.56-.04,2.33-4.69,6.26-6.57,13.61-8.12,21.06-.52,2.47-.72,5-1,7.51-.05.47.25.98.39,1.47.53-.17,1.16-.2,1.58-.52,7.5-5.52,15.7-9.81,24.13-13.66,10.42-4.76,21.02-9.08,31.89-12.74,1.73-.58,3.43-1.27,5.17-1.81,1.68-.52,2.98-.2,3.51.72.61,1.07.16,3.41-1.01,4.19-.84.56-1.87.88-2.86,1.16-3.76,1.04-7.56,1.93-11.29,3.03-11.51,3.41-22.42,8.2-32.72,14.4-5.49,3.31-10.65,7.07-15.71,10.99-1.48,1.15-3.21,2.19-4.99,2.71-3.38.98-4.65-.05-4.64-3.21.02-5.33.9-10.57,2.15-15.74.77-3.18,1.66-6.33,2.49-9.5.13-.51.23-1.02.35-1.53-.1-.1-.2-.21-.31-.31-.69.43-1.56.71-2.05,1.3-5.75,7-11.02,14.36-15.75,22.09-.73,1.2-1.36,2.47-2.05,3.7-.14.25-.28.52-.45.75-.67.9-1.45,2.19-2.57,1.75-.74-.29-1.18-1.69-1.44-2.68-.19-.7,0-1.59.25-2.3,2.31-6.39,4.69-12.76,7.02-19.14.43-1.17.73-2.38,1.12-3.65-1.31-.22-2.01.17-2.62.88-6.91,8.15-13.42,16.6-19.29,25.53-1,1.52-1.84,3.15-2.7,4.76-.56,1.05-2.02,1.96-3.02,1.76-1.27-.25-2.41-1.54-2.26-2.89.14-1.21.45-2.46.96-3.56,2.51-5.46,5.21-10.84,6.87-16.65.51-1.79.9-3.62,1.3-5.44.23-1.07-.24-1.58-1.29-1.24-.87.29-1.79.77-2.42,1.43-4.49,4.61-9.09,9.13-13.3,13.98-4.95,5.71-9.51,11.74-14.3,17.59-.44.53-1.27.99-1.94,1.02-1.27.07-2.02-.72-2.03-2.31-.02-2.98.17-5.96.25-8.94.02-.76-.02-1.51-.04-2.27-.79.37-1.71.58-2.34,1.13-3.34,2.93-6.54,6.02-9.92,8.89-1.7,1.44-3.65,2.59-5.54,3.78-1.07.67-1.6,1.58-1.96,2.74-1.7,5.55-3.44,11.08-5.18,16.62-.22.71-.55,1.39-.78,2.1-.4,1.24-.02,1.65,1.24,1.4,4.6-.91,9.19-1.85,13.81-2.7,8.78-1.61,17.56-3.19,26.35-4.73,8.87-1.55,17.74-3.11,26.64-4.53,10.54-1.68,21.09-3.31,31.65-4.8,9.95-1.41,19.93-2.63,29.9-3.89,2.13-.27,4.16.11,5.7,1.82.96,1.07,1.06,1.76-.03,2.66-1.19.99-2.5,2.09-3.93,2.48-3.03.82-6.15,1.32-9.27,1.76-6.5.9-13.02,1.65-19.53,2.52-8.6,1.14-17.21,2.27-25.8,3.52-10.07,1.47-20.13,2.98-30.17,4.62-11.96,1.96-23.9,4.05-35.85,6.12-4.05.7-8.07,1.55-12.12,2.25-1.29.22-1.86.94-2.33,2.07-4.54,11.04-8.87,22.18-13.74,33.07-7.77,17.35-16.63,34.17-26.63,50.35-5.7,9.22-11.77,18.2-19.07,26.28-2.59,2.87-5.52,5.24-8.93,7.08-4.99,2.69-9.43.91-12.23-3.27-3.11-4.63-4.98-9.78-5.76-15.35-1.45-10.28-.74-20.44,1.13-30.59,1.61-8.72,4.29-17.12,7.49-25.36,3.51-9.06,7.8-17.76,12.48-26.27.56-1.01,1.07-2.05,1.57-3.09.08-.17.04-.4.07-.95Zm73.02-100.77c-.23-3.41-.33-6.57-.69-9.69-.44-3.8-1.24-7.54-3.44-10.8-1.11-1.64-2.52-3.09-4.44-3.61-3.62-.98-7.24-.6-10.77.67-4.83,1.73-9.1,4.41-13.12,7.52-7.19,5.56-13.53,12.03-19.52,18.83-9.04,10.27-16.88,21.34-22.58,33.84-4.5,9.86-7.32,20.08-6.78,31.04.2,4.06,2.02,6.35,6.04,7.02,4.59.76,8.95-.06,12.87-2.63,5.33-3.5,10.34-7.43,14.64-12.14,4.73-5.18,9.13-10.66,13.91-15.79,5.46-5.86,11.11-11.55,16.79-17.2,4.75-4.73,10.16-8.67,15.75-12.37.34-.22.65-.74.67-1.14.26-4.6.47-9.19.68-13.55Zm-18.61,89.49c-.87.07-1.32.07-1.75.15-3.34.65-6.68,1.28-10.01,1.98-10.8,2.26-21.58,4.58-32.4,6.78-1.43.29-2.23.86-2.95,2.12-6.23,10.93-12.06,22.04-16.56,33.81-5.7,14.93-8.92,30.28-8,46.35.32,5.54,1.09,10.96,3.47,16.07.97,2.08,2.93,3.08,5.11,2.25.8-.31,1.62-.72,2.25-1.29,1.61-1.44,3.21-2.9,4.64-4.51,7.26-8.21,13.23-17.35,18.97-26.64,6.65-10.77,12.67-21.9,18.3-33.23,6.29-12.67,11.98-25.6,17.18-38.75.62-1.56,1.1-3.18,1.75-5.09Zm-40.99,1.58c.98-.09,1.56-.08,2.12-.2,10.87-2.31,21.74-4.62,32.61-6.94,3.36-.72,6.73-1.45,10.08-2.22.36-.08.81-.47.91-.81,2.73-8.69,5.58-17.35,8.09-26.1,2.53-8.81,4.41-17.78,5.5-26.89.15-1.25.19-2.5.31-4.15-1.43.53-2.71.7-3.59,1.38-2.53,1.95-4.97,4.03-7.31,6.2-9.67,9.01-18.81,18.52-27.07,28.86-7.31,9.15-14.21,18.6-20.49,28.48-.41.64-.67,1.38-1.15,2.38Z"/>
      <path class="cls-1" d="m114.41,36.39c-.74.45-1.61.76-2.19,1.36-1.98,2.02-3.89,4.1-5.76,6.22-7.83,8.87-15.83,17.61-23.41,26.69-7.67,9.21-13.34,19.7-18.16,30.65-3.71,8.44-6.81,17.09-9.63,25.86-.73,2.27-1.73,3.12-3.49,3.18-1.64.05-3.07-.92-3.33-2.54-.17-1.07-.11-2.25.14-3.31,1.42-5.99,3.79-11.66,6.25-17.28,3.86-8.81,7.84-17.56,11.67-26.39,4.29-9.9,8.17-19.95,10.67-30.48.61-2.58,1.1-5.19,1.58-7.8.12-.67.02-1.39.02-2.49-.89.55-1.67.85-2.2,1.4-10.5,10.93-19.12,23.28-27.1,36.1-8.78,14.1-16.85,28.59-24.12,43.53-5.61,11.53-10.99,23.16-15.03,35.35-.68,2.04-1.09,4.17-1.77,6.21-.69,2.08-3.18,3.22-5.36,2.59-2.22-.64-3.74-2.96-3.06-5.11,1.12-3.55,2.34-7.08,3.75-10.52,4.76-11.64,10.45-22.86,16.32-33.97,9.19-17.4,19.01-34.44,29.76-50.93,6.21-9.53,12.56-18.98,19.74-27.83,3.61-4.45,7.36-8.8,11.93-12.34.82-.63,1.68-1.22,2.59-1.73,2.51-1.41,5.07-.2,5.33,2.69.17,1.87.01,3.84-.42,5.67-1.72,7.3-3.61,14.56-5.42,21.84-.56,2.28-1.07,4.57-1.6,6.85.1.08.2.17.31.25.93-.84,1.99-1.57,2.77-2.52,6.68-8.18,13.87-15.91,21.32-23.38,4.25-4.25,8.8-8.22,13.42-12.08,1.42-1.19,3.47-1.71,5.3-2.33,1.39-.48,2.63.24,3.6,1.2.94.92.9,2.09.36,3.23-1.84,3.86-3.69,7.7-5.53,11.56-5,10.48-10.21,20.86-14.94,31.46-6.2,13.9-11.66,28.1-15.91,42.75-3.21,11.08-6.01,22.26-7.56,33.71-.73,5.42-.96,10.9-1.43,16.36-.07.87-.14,1.74-.27,2.6-.37,2.31-2.37,3.5-4.62,2.79-2.82-.89-4.5-3.11-4.33-6.06.38-6.47,1.27-12.87,2.57-19.22,2.65-12.94,6.5-25.53,10.93-37.96,4.89-13.72,10.45-27.15,16.31-40.47,3.19-7.25,6.35-14.51,9.49-21.78.43-.99.69-2.06,1.02-3.1-.18-.15-.36-.31-.54-.46Z"/>
      <path class="cls-1" d="m165.54,115.62c2.12-.01,3.55-.95,4.61-2.18,2.76-3.2,5.68-6.34,7.91-9.9,3.24-5.15,5.91-10.66,8.85-15.99,1.1-2,2.23-3.98,3.43-5.92,1.01-1.63,2.62-2.2,3.89-1.51,1.39.76,2.19,3.05,1.44,4.51-3.45,6.7-5.65,13.82-6.84,21.22-.56,3.46-.57,7.02-.63,10.54-.02,1.06.52,2.17.96,3.18.43,1,2.76,1.28,4.04.38,1.1-.77,2.06-1.79,2.99-2.78,1.04-1.12,1.94-2.38,2.98-3.51.93-1.02,1.75-.84,2.2.48.17.51.21,1.16.07,1.68-.73,2.7-1.86,5.24-3.6,7.46-2.32,2.96-5.43,4.06-9.06,3.45-3.42-.58-5.38-2.88-6.41-6.09-1.07-3.35-1.1-6.78-.88-10.23.01-.21.04-.41.04-.62,0-.07-.06-.15-.12-.27-.98-.34-1.5.16-2.11.93-3.84,4.75-7.76,9.44-13.07,12.68-.63.39-1.33.68-2.03.94-2.73,1.01-4.95.22-6.49-2.28-1.12-1.81-1.34-1.82-2.87-.28-1.31,1.33-2.52,2.82-4.02,3.89-1.62,1.17-3.45,2.16-5.33,2.83-2.63.93-6.26-.82-6.73-3.55-.07-.42-.58-.96-.98-1.08-.29-.08-.88.37-1.13.73-3.25,4.67-7.64,7.98-12.74,10.28-3.1,1.4-5.64,1.55-8.24-1.64-.88-1.08-1.24-1.14-2.15-.02-1.71,2.08-3.2,4.35-4.93,6.41-1.7,2.03-3.49,4.01-5.42,5.83-3.06,2.88-6.51,1.93-7.81-2.08-.89-2.77-.96-5.63-.66-8.5.65-6.11,2.43-11.92,4.55-17.65,3.21-8.69,7.04-17.1,11.57-25.17,2.57-4.58,5.54-8.88,9.21-12.65,2.22-2.28,4.72-4.19,7.81-5.19,2.28-.74,4.55-.75,6.85-.01,1.72.55,2.96,1.62,3.43,3.31.38,1.36,1.19,1.71,2.42,1.77,1.09.05,2.14.23,2.75,1.36.63,1.16.75,2.3.03,3.42-1.22,1.88-2.48,3.73-3.75,5.58-3.44,5.03-5.87,10.6-8.24,16.16-2.46,5.79-4.62,11.71-6.82,17.61-.62,1.67,0,2.28,1.8,2.17,2.05-.13,3.65-1.01,5.08-2.51,3.65-3.83,6.57-8.18,9.01-12.8,4.36-8.24,8.4-16.65,12.58-24.99.72-1.44,1.48-2.87,2.29-4.27.62-1.07,1.72-1.73,2.83-1.3,1.09.42,1.98,1.38,2.89,2.18.12.1-.09.69-.25.99-2.21,4.13-4.48,8.23-6.64,12.39-3.24,6.22-6.44,12.47-7.94,19.39-.32,1.47-.21,3.03-.23,4.56-.01.79.49,1.11,1.28,1.22,1.9.28,3.64-.12,4.92-1.5,1.38-1.48,2.69-3.07,3.75-4.78,4.55-7.31,8.19-15.08,11.39-23.06,1.39-3.46,2.75-6.93,4.11-10.4.5-1.27,1.61-2.05,2.83-1.56,1.11.44,2.15,1.23,2.98,2.1.31.31.11,1.35-.14,1.93-1.81,4.19-3.85,8.28-5.5,12.52-1.99,5.13-3.72,10.36-5.43,15.6-.45,1.38-.38,2.93-.57,4.62Zm-61.2,13.99c0,.83-.11,1.56.04,2.24.12.53.44,1.24.87,1.43.43.19,1.28.04,1.64-.29,1.24-1.15,2.52-2.33,3.48-3.7,5.61-7.99,10.42-16.47,14.98-25.09,2.88-5.46,5.6-11,8.28-16.56,1.26-2.61,1.52-5.4.67-8.24-.24-.8-.67-1.1-1.49-1.18-2.22-.23-4.27.25-5.98,1.63-1.77,1.42-3.57,2.9-4.98,4.65-4.88,6.06-8.38,12.93-11.32,20.09-3.32,8.08-5.17,16.51-6.18,25.03Z"/>
      <path class="cls-1" d="m363.47,31.37c-2.56-.01-4.41-2.12-4.01-4.54.38-2.35.94-4.64,2.7-6.42,2.7-2.74,6.33-2.41,8.29.85.38.63.65,1.54.5,2.22-.79,3.73-3.21,6.16-6.59,7.73-.15.07-.32.1-.48.13-.16.03-.33.03-.4.04Z"/>
      <path class="cls-1" d="m196.17,68.4c.31-2.73,1.08-5.53,3.6-7.5,2.52-1.97,5.54-1.45,7.31,1.21.81,1.21.86,2.5.36,3.8-1.1,2.83-3.11,4.91-5.78,6.25-2.46,1.23-5.56-.82-5.48-3.76Z"/>
    </g>
  </g>
</svg>