<?xml version="1.0" encoding="UTF-8"?>
<svg id="Layer_2" data-name="Layer 2" xmlns="http://www.w3.org/2000/svg" viewBox="0 0 751.39 211.95">
  <defs>
    <style>
      .cls-1 {
        fill: #1c252f;
      }
    </style>
  </defs>
  <g id="Layer_2-2" data-name="Layer 2">
    <g id="Layer_1-2" data-name="Layer 1-2">
      <g>
        <path class="cls-1" d="m380.61,96.91c14.25,17.11,28.26,33.92,42.78,51.34,2.14-6.54,4.27-12.44,5.98-18.47,1.68-5.95,2.94-12.01,4.49-18.51,4.92,5.66,9.63,10.97,14.16,16.43.53.64.33,2.14.09,3.15-2.75,11.35-7.08,22.07-13.09,32.4,12.72,14.78,25.43,29.56,38.65,44.93-8.54,0-16.33.06-24.12-.09-.87-.02-1.85-1.1-2.55-1.89-7.78-8.76-15.52-17.56-23.51-26.63-.75.99-1.41,1.82-2.04,2.69-21.72,30.06-58.18,34.69-84.25,24.35-42.35-16.81-45.25-68-16.83-93.22,8.54-7.57,18.08-13.54,28.1-18.83,1.24-.66,2.49-1.32,3.71-1.96-4.69-6.33-9.37-12.37-13.76-18.61-6.09-8.67-9.81-18.19-10.1-28.97-.48-18.11,7.62-31.18,23.48-39.26,14.21-7.23,29.1-7.54,43.79-1.48,23.26,9.61,32.29,36.21,20.51,59.45-6.29,12.42-16.35,21.17-27.83,28.53-2.39,1.53-4.86,2.95-7.68,4.66h.01Zm-17.62,8.23c-2.94,1.7-5.61,3.17-8.21,4.75-8.63,5.27-16.9,10.97-23.6,18.74-15.09,17.48-12.84,51.48,16.57,62.06,23.65,8.51,52.23-2.31,64.57-24.95-16.33-20.06-32.72-40.2-49.33-60.6h0Zm6.94-21.34c8.89-4.53,16.73-9.75,22.82-17.23,6.68-8.21,9.7-17.48,8-28.15-2.41-15.07-15.62-24.6-30.87-22.12-14.05,2.29-23.24,15.61-20.86,30.29,2.41,14.87,11.51,25.97,20.91,37.2h0Z"/>
        <path class="cls-1" d="m0,207.93V3.82h18.96v83.31c.84-.98,1.18-1.26,1.38-1.62,19.81-35.8,76.14-35.59,96.01,3.75,8.63,17.08,11.06,35.23,9.86,54.03-.99,15.39-5.04,29.86-13.61,42.89-20.67,31.44-58.25,29.49-77.46,17.18-5.93-3.8-10.73-8.73-14.46-14.7-.31-.48-.67-.93-1.49-2.07v21.33H0Zm107.14-72.32c-.01-13.58-1.73-26.83-8.22-39.03-8.63-16.23-24.99-23.97-43.09-20.7-16.27,2.94-26.54,12.94-32.7,27.69-5.68,13.59-6.48,27.87-5.18,42.32.96,10.65,3.67,20.86,9.52,29.97,9.58,14.91,23.46,21.23,40.91,19.53,15.99-1.56,26.3-10.87,32.54-25.18,4.81-11.03,6.21-22.7,6.21-34.61h0Z"/>
        <path class="cls-1" d="m655.89,207.68h-19.02V3.55h18.96v79.85c.87-.96,1.28-1.33,1.59-1.76,12.17-17.41,29.28-23.86,49.88-22.26,4.34.34,8.73,1.11,12.88,2.41,17.51,5.47,26.66,18.21,29.86,35.67.88,4.78,1.27,9.71,1.29,14.58.12,31.09.06,62.18.06,93.27v2.66h-19.26v-4.03c0-28.95.07-57.9-.07-86.85-.02-5.47-.4-11.04-1.49-16.39-3.39-16.61-13.84-25.12-30.9-25.72-21.98-.78-37.38,11.79-41.83,34.67-1.26,6.45-1.8,13.14-1.86,19.73-.21,24.87-.09,49.74-.09,74.61v3.69h.01Z"/>
        <path class="cls-1" d="m177.27,110.71c-6.12-1.64-11.79-3.16-17.63-4.73-1.46-14.11,2.12-26.11,13.71-34.97,7.56-5.77,16.32-8.66,25.59-10.09,10.75-1.67,21.5-1.92,32.21.43,21.08,4.62,34.11,19.75,34.85,41.34.51,15.07.26,30.16.35,45.24.1,16.1.13,32.2.39,48.3.06,3.94.86,7.87,1.35,12.03-5.53,0-11.22.09-16.91-.1-.72-.02-1.88-1.43-2-2.32-.51-3.62-.71-7.29-.98-10.94-.08-1.09-.01-2.19-.01-4.24-1.33,1.52-2.08,2.37-2.82,3.23-17.01,19.77-50.91,24.09-72.23,9.11-14.03-9.86-18.75-23.87-17.03-40.34,1.68-16.08,11.24-26.08,25.72-32.04,11.14-4.59,22.99-6.08,34.74-7.97,7.44-1.19,14.9-2.3,22.31-3.66,6.06-1.11,8.83-4.4,8.87-10.58.02-4.05,0-8.22-.92-12.12-2.23-9.37-8.43-15.45-17.52-18.33-11.43-3.62-22.96-3.3-34.23.61-11.67,4.05-17.43,12.34-17.78,24.69-.06,2.33,0,4.67,0,7.45h-.02Zm70.54,21.26c-1.26.23-2.25.39-3.22.59-10.97,2.2-21.97,4.24-32.89,6.67-7.41,1.65-14.98,3.15-21.98,5.96-10.4,4.17-14.88,12.8-14.54,23.86.37,11.65,5.51,20.22,16.67,24.63,6.94,2.74,14.14,2.76,21.37,1.7,15.74-2.31,26.42-10.78,31.52-26.04,4.07-12.17,2.93-24.71,3.08-37.37h0Z"/>
        <path class="cls-1" d="m596.15,87.82c-5.39,4.56-9.97,8.43-14.84,12.55-.62-1.11-1.16-2.03-1.65-2.96-10.31-19.56-34.03-27.82-54.35-18.91-10.64,4.67-15.85,15.26-12.63,25.73,1.7,5.49,5.38,9.61,10.43,11.82,6.58,2.88,13.49,5.05,20.37,7.15,10.7,3.25,21.69,5.63,32.16,9.45,5.58,2.03,10.95,5.66,15.36,9.71,16.97,15.65,15.01,42.39-3.8,56.91-9.33,7.19-20.14,10.59-31.66,11.81-20.4,2.15-39.1-2.27-55.42-15.14-6.46-5.09-11.67-11.28-15.83-18.68,5.49-3.81,10.83-7.51,16.37-11.36,1.44,2.12,2.77,4.12,4.15,6.1,17.28,24.91,44.67,26.04,62.74,18.52,7.94-3.3,13.68-8.87,15.01-17.85,1.13-7.58-1.34-13.87-7.37-18.64-5.89-4.67-12.91-6.81-20.02-8.71-11.6-3.09-23.31-5.83-34.78-9.35-8.06-2.47-15.29-6.81-20.73-13.5-12.39-15.23-9.17-39.34,6.92-51.86,10.33-8.04,22.37-11.01,35.18-11.24,16.03-.28,30.8,3.52,42.74,14.84,4.23,4.02,7.65,8.88,11.65,13.62h0Z"/>
      </g>
    </g>
  </g>
</svg>