<?xml version="1.0" encoding="UTF-8"?>
<svg id="Layer_2" data-name="Layer 2" xmlns="http://www.w3.org/2000/svg" viewBox="0 0 96.41 15.55">
  <defs>
    <style>
      .cls-1 {
        fill: #1c252f;
        fill-rule: evenodd;
      }
    </style>
  </defs>
  <g id="Layer_2-2" data-name="Layer 2">
    <path id="Path_2" data-name="Path 2" class="cls-1" d="m7.76,14.2c-3.55-.09-6.35-3.04-6.26-6.59.09-3.41,2.82-6.16,6.23-6.26,2.08.02,4.01,1.06,5.17,2.78h1.65c-.45-.9-1.07-1.7-1.83-2.35C11.32.65,9.57.02,7.76,0,3.47,0,0,3.49,0,7.79c0,4.29,3.49,7.77,7.79,7.76,1.75-.02,3.44-.62,4.8-1.71.81-.71,1.5-1.56,2.04-2.5h-1.66c-1.16,1.75-3.1,2.81-5.2,2.86ZM24.88,6.06c-.97-1.36-2.53-2.17-4.19-2.18-3.14,0-5.69,2.55-5.69,5.69s2.55,5.69,5.69,5.69c1.67.02,3.24-.79,4.19-2.16v1.9h1.36V4.15h-1.36v1.92Zm-4.27,7.94c-2.45-.08-4.37-2.13-4.29-4.58.08-2.33,1.95-4.21,4.29-4.29,2.45.1,4.36,2.16,4.26,4.61-.09,2.31-1.95,4.17-4.26,4.26Zm7.28,1h1.46V.31h-1.46v14.69Zm6.97-1.72l-3.69-9.14h-1.45l4.42,10.86h1.47l4.41-10.86h-1.42l-3.75,9.14h0Zm5.77,1.72h1.46V4.15h-1.46v10.86Zm0-12.26h1.46V.31h-1.46v2.44Zm7.74,1.13c-1.28.06-2.47.68-3.25,1.69v-1.42h-1.35v10.86h1.43v-6.62c0-1.77,1.42-3.22,3.19-3.25,2.21,0,3.31,1.92,3.31,3.89v5.98h1.35v-5.98c0-2.82-1.65-5.15-4.69-5.15h0ZM66.59.31l-6.63,8.42V.31h-1.43v14.69h1.43v-4.04l1.88-2.34,4.79,6.38h1.82l-5.69-7.53,5.69-7.16h-1.86Zm2.39,14.69h1.42V.31h-1.42v14.69Zm13.2-8.12c-1.47-2.8-4.92-3.88-7.72-2.41s-3.88,4.92-2.41,7.72c.99,1.9,2.97,3.08,5.11,3.06,1.49,0,2.93-.59,4.01-1.62.61-.63,1.08-1.37,1.39-2.19h-1.53c-.96,2.15-3.48,3.12-5.63,2.16-1.42-.63-2.38-1.98-2.52-3.53h10.02c.05-1.11-.2-2.22-.71-3.21h0Zm-9.26,1.95c.34-2.09,2.12-3.64,4.23-3.7,2.15-.03,3.99,1.56,4.25,3.7h-8.49Zm11.03,6.17h1.43V4.15h-1.43v10.86Zm0-12.21h1.43V.31h-1.43v2.48Zm7.74,1.08c-1.29.06-2.49.67-3.29,1.69v-1.42h-1.37v10.86h1.45v-6.62c.01-1.79,1.45-3.23,3.24-3.25,2.19,0,3.35,1.92,3.35,3.89v5.98h1.35v-5.98c0-2.82-1.68-5.15-4.72-5.15Z"/>
  </g>
</svg>