<?xml version="1.0" encoding="UTF-8"?>
<svg id="Layer_2" data-name="Layer 2" xmlns="http://www.w3.org/2000/svg" viewBox="0 0 642.77 118.09">
  <defs>
    <style>
      .cls-1 {
        fill: #1c252f;
        fill-rule: evenodd;
      }
    </style>
  </defs>
  <g id="Layer_2-2" data-name="Layer 2">
    <g id="Layer_1-2" data-name="Layer 1-2">
      <path class="cls-1" d="m31.29,0c12.41,0,23.14,4.77,28.2,11.69l-8.48,3.48h0c-3.51-4.3-11.02-7.27-19.72-7.27-12.06,0-21.84,5.71-21.84,12.76s9.78,12.76,21.84,12.76c8.58,0,16.01-2.89,19.58-7.1h0l8.5,3.47c-5.1,6.83-15.76,11.54-28.08,11.54-17.28,0-31.29-9.26-31.29-20.67S14.01,0,31.29,0h0Zm84.34,41.32h12.08l6.34-8.76h33.72l6.34,8.76h12.08L156.34,2.83h-10.86l-29.85,38.49h0Zm23.67-16.02l11.61-16.06,11.61,16.06h-23.23,0Zm109.9-5.74h30.65c2.46,0,4.49-2.13,4.49-4.7s-2.03-4.7-4.49-4.7h-30.65v9.4h0Zm35.12,6.96l10.77,14.8h-10.84l-11.01-14.43h-24.04v14.43h-9.08V2.83h41.28c6.62,0,12.03,5.41,12.03,12.03h0c0,5.61-3.89,10.35-9.1,11.67h0ZM415.67,2.83h-11.5l-23.39,31.12-23.39-31.12h-11.5l28.93,38.49h11.91l28.93-38.49h.01Zm55.04,0h49.03v7.33h-40.25v7.49h36.43v7.7h-36.43v8.64h40.25v7.33h-49.03V2.83h0Zm113.59,38.49h9.44V14.94l42.02,26.37h7.01V2.83h-9.44v25.63l-41.57-25.63h-7.47v38.49h0Zm-433.86,63.89h.93c2.01,0,3.35-.21,4.02-.62s1-1.14,1-2.19c0-1.12-.36-1.92-1.08-2.38-.71-.46-2.03-.69-3.95-.69h-.93v5.89h0Zm-.22,2.81v9.5h-3.4v-21.16h5.48c1.63,0,2.82.08,3.59.25.76.17,1.43.45,2.01.83.7.49,1.25,1.15,1.65,1.98s.59,1.75.59,2.75-.2,1.93-.59,2.78c-.4.85-.95,1.51-1.65,1.99-.57.38-1.24.66-2.01.82-.77.16-1.96.25-3.59.25h-2.08Zm85.51,1.18h6.22l-2.29-4.82c-.13-.31-.27-.66-.41-1.06-.14-.4-.29-.84-.43-1.34-.12.46-.25.89-.39,1.29s-.28.77-.42,1.1l-2.29,4.82h0Zm10.02,8.32l-2.53-5.45h-8.84l-2.59,5.45h-3.81l10.8-21.99,10.79,21.99h-3.83,0Zm78.85-12.13h.66c1.92,0,3.19-.21,3.82-.64.63-.42.95-1.17.95-2.25,0-1.16-.34-1.98-1.01-2.46-.68-.48-1.93-.72-3.75-.72h-.66v6.07h-.01Zm-.22,2.66v9.47h-3.4v-21.16h5.05c1.48,0,2.63.09,3.45.28.82.18,1.51.48,2.09.91.69.51,1.22,1.17,1.6,1.98.37.81.56,1.69.56,2.66,0,1.69-.43,3.02-1.29,3.98-.86.96-2.14,1.53-3.82,1.73l7.67,9.63h-4.09l-7.42-9.47h-.41.01Zm83.44,9.47v-21.16h3.62v21.16h-3.62Zm76.86-4.24l2.89-1.27c.28.94.78,1.66,1.51,2.16s1.66.74,2.8.74,1.93-.29,2.57-.85c.63-.57.95-1.33.95-2.28,0-1.24-1.09-2.35-3.26-3.32-.31-.14-.54-.25-.7-.32-2.46-1.14-4.1-2.17-4.91-3.09-.82-.92-1.23-2.05-1.23-3.37,0-1.73.62-3.12,1.85-4.19s2.85-1.6,4.86-1.6c1.64,0,3.02.3,4.13.9,1.11.6,1.87,1.46,2.3,2.59l-2.83,1.39c-.45-.67-.94-1.15-1.47-1.46-.54-.31-1.15-.46-1.84-.46-.97,0-1.75.24-2.32.73-.58.48-.86,1.12-.86,1.93,0,1.27,1.26,2.46,3.78,3.56.19.09.34.16.46.2,2.2.97,3.72,1.91,4.54,2.83s1.23,2.07,1.23,3.45c0,2-.67,3.6-2,4.77-1.33,1.18-3.13,1.77-5.4,1.77-1.9,0-3.45-.41-4.67-1.24-1.21-.83-2.01-2.01-2.38-3.56h0Z"/>
    </g>
  </g>
</svg>