<?xml version="1.0" encoding="UTF-8"?>
<svg id="Layer_2" data-name="Layer 2" xmlns="http://www.w3.org/2000/svg" viewBox="0 0 360.58 96.77">
  <defs>
    <style>
      .cls-1 {
        fill: #1c252f;
      }
    </style>
  </defs>
  <g id="Layer_2-2" data-name="Layer 2">
    <g id="Layer_1-2" data-name="Layer 1-2">
      <g>
        <path class="cls-1" d="m.05,25.2V1.58C.05.08.13.04,1.6.14c.7.05,1.41.03,2.12.03,10.35.01,20.7-.05,31.05.07,5.5.06,10.8,1.19,15.61,4.01,6.16,3.61,9.47,9.11,10.41,16.09.61,4.56.49,9.13-.89,13.53-2.66,8.48-8.57,13.51-17.25,15.2-3.12.61-6.33.96-9.51,1.01-9.52.13-19.04.05-28.56.07-1,0-1.99.04-2.99.13-1.45.12-1.59.02-1.59-1.43v-23.62h.03l.02-.03Zm12.07-.4h0c0,4.85.02,9.7-.02,14.54,0,.91.26,1.22,1.2,1.21,5.11-.04,10.22-.05,15.33,0,3.48.03,6.85-.59,10.17-1.52,4.24-1.19,7.5-3.55,8.93-7.87,1.37-4.11,1.53-8.27.17-12.43-1.23-3.75-3.58-6.6-7.35-7.91-2.28-.79-4.74-1.38-7.13-1.45-6.77-.2-13.54-.07-20.32-.13-1.06,0-1,.58-1,1.26v14.29h.02Z"/>
        <path class="cls-1" d="m168.07,20.48c0,5.85.04,11.69-.02,17.54-.02,1.77-.2,3.56-.52,5.3-.71,3.93-3.1,5.96-7.53,6.52-1.32.17-2.65.28-3.97.28-11.35.02-22.7.02-34.05-.03-1.48,0-2.99-.24-4.43-.6-3.67-.92-5.83-3.77-5.98-8.04-.18-5.09-.24-10.19-.27-15.28-.04-8.25,0-16.5-.03-24.75,0-1.08.26-1.41,1.4-1.38,3.11.09,6.23.06,9.35,0,.93-.02,1.31.29,1.3,1.17,0,.75.01,1.49.01,2.24v34.95c0,2.13,0,2.15,2.18,2.15,9.77,0,19.54-.02,29.31.02,1.09,0,1.41-.29,1.41-1.4-.04-12.52-.02-25.04-.02-37.56,0-1.59,0-1.54,1.57-1.52,2.95.03,5.9.07,8.85-.05,1.21-.05,1.48.33,1.48,1.45-.04,6.34-.02,12.69-.02,19.03h0l-.02-.03Z"/>
        <path class="cls-1" d="m324.74,40.5h1.71c10.31,0,20.62,0,30.93,0,2.02,0,2.02-.02,2.02,1.95,0,2.2-.01,4.39.03,6.59.02.86-.31,1.16-1.17,1.16-12.35-.04-24.69-.08-37.04-.08-4.9,0-9.8.07-14.7.13-.84,0-1.26-.28-1.15-1.16v-.12c-.57-3.35.78-5.68,3.22-8.07,9.1-8.91,17.95-18.08,26.88-27.17,1.39-1.41,2.72-2.88,4.14-4.39-.34-.02-.76-.08-1.18-.08-9.35-.01-18.71-.04-28.06,0-1.21,0-1.58-.36-1.54-1.55.08-2.23.03-4.48,0-6.71-.01-.76.24-.99,1.01-.99,14.96.07,29.93.1,44.89.14,1.16,0,2.33-.02,3.49-.1.95-.07,1.13.36,1.23,1.23.29,2.68-.67,4.59-2.62,6.52-10.34,10.2-20.52,20.57-30.76,30.86-.49.49-1.11.85-1.67,1.27.12.18.23.37.35.55h0Z"/>
        <path class="cls-1" d="m246.2,9.27c-.02.4-.06.83-.06,1.27,0,12.6,0,25.2-.02,37.8,0,1.17-.59,1.76-1.78,1.77-3.12.02-6.24.06-9.35.02-.31,0-.83-.49-.88-.81-.13-.85-.07-1.73-.07-2.6,0-11.94,0-23.88,0-35.81,0-1.13-.57-1.7-1.7-1.69-6.53,0-13.05.02-19.58.02-1.63,0-1.65-.03-1.66-1.7-.02-2.11,0-4.23-.03-6.34-.02-.91.28-1.19,1.23-1.19,17.5.07,35,.1,52.51.13,1.08,0,2.16-.06,3.24-.14.76-.05,1.05.28,1.05,1.01-.02,2.4-.02,4.81,0,7.21,0,.71-.34.96-.98.98-.83.02-1.66.05-2.49.05h-19.44v.02Z"/>
        <path class="cls-1" d="m165.34,80.78c.24-.06.28-.09.32-.08,3.11.24,2.47-.4,3.49,2.58.99,2.89,1.96,5.78,3.04,9.01.28-.61.46-.94.59-1.29,1.05-2.79,2.07-5.58,3.13-8.36.33-.87.54-2.02,1.72-2.04,1.24-.02,1.33,1.21,1.64,2.06,1.1,2.94,2.13,5.91,3.19,8.87.08.22.19.42.38.87.83-2.4,1.58-4.58,2.32-6.75.39-1.13.75-2.28,1.15-3.41.62-1.73,1.42-2.03,3.26-1.12-.45,1.3-.89,2.62-1.37,3.93-1.24,3.42-2.5,6.83-3.73,10.26-.31.87-.78,1.45-1.76,1.46-.96,0-1.35-.64-1.62-1.44-.79-2.35-1.6-4.7-2.42-7.04-.31-.88-.67-1.74-1.01-2.61-.12,0-.25-.01-.37-.02-.59,1.69-1.17,3.38-1.77,5.06-.58,1.64-1.1,3.31-1.83,4.88-.23.49-1.04.93-1.62.97-.51.04-1.37-.4-1.54-.83-1.77-4.64-3.43-9.31-5.11-13.98-.1-.29-.08-.62-.11-.98h.03Z"/>
        <path class="cls-1" d="m354.2,90.77c2.22,1.89,4.25,3.61,6.38,5.42-1.95.85-4.22.49-5.44-.69-1.31-1.27-2.7-2.47-3.92-3.82-1.31-1.47-2.98-1.24-4.61-1.18-.27.01-.7.65-.73,1.02-.08,1.28-.05,2.57.02,3.85.06,1.13-.55,1.29-1.48,1.26-.87-.03-1.65.07-1.63-1.23.06-4.47.05-8.95.04-13.42,0-.83.27-1.19,1.16-1.18,3.78.04,7.56,0,11.34.05,2.67.04,3.56,1,3.59,3.65.01.99.03,1.99,0,2.98-.04,1.89-.64,2.59-2.51,2.95-.64.12-1.28.19-2.23.33h.02Zm-3.48-7.61v-.02c-1.24,0-2.49.04-3.73-.01-.85-.03-1.22.24-1.16,1.13.06.95.07,1.9,0,2.85-.07.9.31,1.17,1.15,1.16,1.9-.03,3.81,0,5.72,0,3.37,0,3.49-.15,3.33-3.51-.05-1.05-.47-1.62-1.58-1.6-1.24.03-2.48,0-3.73,0h0Z"/>
        <path class="cls-1" d="m111.95,88.46c0-2.23.02-4.47-.01-6.7-.01-.74.34-.94.98-.94,4.32,0,8.64,0,12.96-.02.86,0,1.29.3,1.29,1.24,0,1.02-.57,1.14-1.36,1.14-3.24-.01-6.48.03-9.72-.02-.98-.01-1.31.28-1.26,1.28.13,2.81.09,2.82,2.98,2.82,1.2,0,2.41.01,3.61-.04.83-.04.95.44,1,1.09.05.7-.18,1.12-.95,1.12-1.79,0-3.57.03-5.36-.02-.89-.02-1.3.28-1.26,1.21.16,4-.71,3.56,3.4,3.61,2.62.03,5.23.02,7.85-.06,1.08-.04,1.24.55,1.29,1.35.06.93-.51,1.11-1.27,1.1-4.36-.04-8.72-.08-13.09-.11-.91,0-1.22-.45-1.21-1.32.03-2.24.01-4.47.01-6.71h.13v-.02Z"/>
        <path class="cls-1" d="m.08,88.58c0-2.19.03-4.39,0-6.58-.02-.87.32-1.18,1.17-1.18,4.24.01,8.47,0,12.71-.02.88,0,1.44.2,1.42,1.23-.01,1.09-.68,1.15-1.5,1.15-3.16-.01-6.31.02-9.47-.03-1-.01-1.4.23-1.34,1.33.17,2.76.11,2.77,2.9,2.77,1,0,1.99-.04,2.99-.08.91-.03,1.67.1,1.66,1.27-.01,1.21-.92.97-1.61.99-1.58.03-3.16.02-4.73-.03-.86-.03-1.23.3-1.18,1.16.03.58,0,1.16.02,1.74.02,1.88.02,1.9,1.95,1.91,3.03.01,6.06.02,9.09-.06,1.08-.03,1.37.46,1.4,1.37.03,1.03-.64,1.1-1.41,1.09-4.28-.04-8.56-.08-12.83-.09-.97,0-1.3-.41-1.28-1.36.05-2.19.02-4.39.02-6.58h.05-.02Z"/>
        <path class="cls-1" d="m229.53,88.71c0-2.28.03-4.56,0-6.83,0-.81.26-1.07,1.08-1.06,4.24.03,8.47.02,12.71,0,.9,0,1.4.23,1.38,1.26-.02,1.03-.62,1.11-1.4,1.11-3.24,0-6.48.03-9.72-.02-1.06-.02-1.33.36-1.28,1.39.16,3.13-.18,2.61,2.85,2.69,1.12.03,2.24-.07,3.36-.09.81-.02,1.48.09,1.42,1.2-.05,1.04-.58,1.18-1.47,1.14-1.66-.07-3.32-.04-4.98-.07-.9-.02-1.25.33-1.22,1.27.12,3.54.09,3.55,3.65,3.54,2.49,0,4.98-.07,7.47-.08.68,0,1.51-.18,1.48.96-.03.96-.21,1.59-1.47,1.55-4.23-.11-8.47-.1-12.71-.1-.84,0-1.18-.24-1.16-1.13.05-2.24.02-4.47.02-6.71h0v-.02Z"/>
        <path class="cls-1" d="m303.07,96.4c-2.81.61-3.4.4-4.36-1.94-.57-1.39-1.47-1.86-2.87-1.83-2.2.04-4.41.05-6.61,0-1.02-.03-1.66.35-2.04,1.27-.11.27-.27.51-.4.77-1.11,2.18-1.25,2.25-3.96,1.8.17-.46.28-.92.5-1.32,2.38-4.36,4.78-8.71,7.16-13.07.44-.82.9-1.39,1.99-1.33,1.16.06,2.08.06,2.76,1.33,2.34,4.38,4.82,8.69,7.24,13.03.21.38.36.8.59,1.32v-.03Zm-6.52-6c-1.29-2.41-2.45-4.59-3.76-7.03-1.33,2.49-2.49,4.68-3.74,7.03h7.5Z"/>
        <path class="cls-1" d="m62.85,87.6c1.54-1.9,3.01-3.69,4.46-5.49,1.05-1.3,2.34-1.74,3.95-1.29.93.26.56.71.14,1.16-2.01,2.15-3.99,4.34-6.04,6.44-.81.83-1.22,1.69-1.15,2.86.08,1.32,0,2.65.05,3.98.04,1.13-.51,1.39-1.54,1.34-.96-.04-1.51-.24-1.36-1.36.44-3.48-.33-6.46-3.2-8.85-1.54-1.28-2.68-3.04-3.99-4.6-.17-.2-.27-.47-.48-.85,1.65-.26,3.04-.35,4.18,1,1.6,1.89,3.28,3.72,4.99,5.65h0Z"/>
      </g>
    </g>
  </g>
</svg>