<?xml version="1.0" encoding="UTF-8"?>
<svg id="Layer_2" data-name="Layer 2" xmlns="http://www.w3.org/2000/svg" viewBox="0 0 557.48 340.32">
  <defs>
    <style>
      .cls-1 {
        fill: #1c252f;
      }
    </style>
  </defs>
  <g id="Layer_2-2" data-name="Layer 2">
    <g id="Layer_1-2" data-name="Layer 1-2">
      <g>
        <path class="cls-1" d="m441.63,201.59h-10.81c-38.49,0-76.98.06-115.48-.16-3.01-.02-6.48-1.33-8.93-3.13-9.53-6.99-18.74-14.41-28.51-22.03-7.58,5.92-15.47,11.46-22.61,17.84-6.34,5.66-13.01,7.76-21.6,7.66-37.82-.47-75.65-.2-113.47-.21-1.62,0-3.24-.15-5.08-.23v-112.5c1.77-.09,3.38-.25,4.99-.25,40.16-.02,80.32-.08,120.47.11,2.87.01,6.18,1.25,8.52,2.96,9.67,7.06,19.04,14.53,28.89,22.13,8.21-6.44,16.53-12.52,24.31-19.21,5.35-4.61,10.89-6.38,18.03-6.32,38.82.34,77.65.16,116.47.15h4.8v113.19Zm-38.89-34.39c0-14.33-.03-27.96.03-41.6.01-2.9-1.68-3.11-3.91-3.11-15.49.04-30.98,0-46.47.08-1.6,0-3.52.19-4.74,1.06-9.43,6.75-18.73,13.69-28.28,20.73.72.85,1.05,1.43,1.54,1.79,8.82,6.54,17.65,13.08,26.53,19.54,1.02.74,2.36,1.44,3.56,1.44,16.97.09,33.93.06,51.76.06h-.02Zm-248.88.02h6.11c11.82,0,23.66-.45,35.45.14,8.09.4,14.88-1.18,20.91-6.77,3.51-3.26,7.76-5.72,11.62-8.61,3.11-2.32,6.14-4.73,9.65-7.45-9.9-7.27-19.09-14.13-28.43-20.77-1.35-.96-3.43-1.24-5.17-1.25-15.15-.1-30.3.04-45.45-.13-3.82-.04-4.84,1.4-4.75,5,.21,7.99.05,15.98.04,23.98v15.86h.02Z"/>
        <path class="cls-1" d="m467.72,54.16c-8.57,2.89-13.4,9.06-18.52,14.99-1.37,1.58-3.93,2.13-5.94,3.15-.79-2.14-2.51-4.4-2.24-6.4,3.53-26.03,14.9-47.74,36.14-63.75,4.34-3.27,6.52-2.86,9.4,1.58,12.58,19.39,19.27,40.75,21.35,63.69,3.71,40.84-8,78.04-26.8,113.49-4.97,9.38-11.01,18.21-16.7,27.2-1.66,2.62-4.06,5.08-7.35,2.49-2.86-2.25-1.49-4.73-.28-7.86,4.47-11.57,9.02-23.25,11.94-35.27,6.1-25.06,7.93-50.64,6.09-76.4-.89-12.43-2.83-24.71-7.09-36.93v.02Z"/>
        <path class="cls-1" d="m88.71,53.57c-2.03,10.19-4.64,19.5-5.63,28.97-3.81,36.57-.09,72.47,11.3,107.47,1.53,4.69,4.46,8.93,6.08,13.6.72,2.07.7,5.51-.56,6.93-2.21,2.49-5.11.89-6.6-1.62-7.67-12.83-15.87-25.42-22.6-38.74-15.65-30.96-24.05-63.72-21.86-98.73,1.52-24.39,8.3-47.09,21.63-67.69,2.96-4.57,5.02-4.94,9.82-1.31,16.09,12.16,26.7,28.17,32.41,47.39,1.6,5.39,2.61,11.01,3.31,16.59.23,1.84-1.39,3.92-2.17,5.89-1.95-.86-4.3-1.29-5.79-2.65-4.39-4.01-8.33-8.51-12.68-12.56-1.49-1.39-3.69-2-6.66-3.54Z"/>
        <path class="cls-1" d="m0,340.21v-10.6h46.53v-7.17H.14v-56.81h79.01v74.59H0Zm46.5-29.54v-33.83h-13.48v33.83h13.48Z"/>
        <path class="cls-1" d="m478.68,265.54h32.19v45.28h13.95v-45.12h32.66v74.57h-78.75v-10.79h46.08v-6.96h-46.13v-56.98Z"/>
        <path class="cls-1" d="m319.18,340.31v-10.91h46.3v-6.83h-46.19v-57.26c10.05,0,19.99-.11,29.92.2.84.03,2.24,2.89,2.26,4.46.19,11.99.11,23.99.11,35.99v4.76h14.18v-45.14h32.19v74.74h-78.77Z"/>
        <path class="cls-1" d="m136.02,322.02v-56.31h78.91c.16,1.37.45,2.66.45,3.95.02,16.15-.02,32.31.02,48.46,0,2.56-.07,4.44-3.6,4.43-24.47-.13-48.95-.09-73.42-.13-.63,0-1.26-.21-2.35-.4h0Zm46.57-45.08h-13.6v33.63h13.6v-33.63Z"/>
        <path class="cls-1" d="m466.31,276.51h-11.43v45.62h-32.63v-44.72c-4.33-2.58-13.27,3.1-11.87-7.86,1.12-8.78,8.33-1.4,11.57-6.25v-16.37h44.97c-.4,3.62.42,8.29-1.51,10.23-1.85,1.85-6.55.87-10.28,1.15v6.93h11.17v11.27h0Z"/>
        <path class="cls-1" d="m306.67,265.62v24.72h-22.88c-6.28,0-9.47-3.11-9.58-9.33-.02-1.3-.18-2.6-.3-4.18h-13.92v45.27h-32.11v-56.49h78.79Z"/>
        <path class="cls-1" d="m123.52,322.17h-31.77c-.1-1.91-.25-3.53-.25-5.15-.02-23.31.09-46.62-.1-69.93-.03-4.24,1.34-5.42,5.42-5.3,8.78.27,17.58.08,26.71.08v80.3h-.01Z"/>
      </g>
    </g>
  </g>
</svg>