<?xml version="1.0" encoding="UTF-8"?>
<svg id="Layer_2" data-name="Layer 2" xmlns="http://www.w3.org/2000/svg" viewBox="0 0 299.9 44.52">
  <defs>
    <style>
      .cls-1 {
        fill: #1c252f;
      }
    </style>
  </defs>
  <g id="Layer_2-2" data-name="Layer 2">
    <g id="Calque_2" data-name="Calque 2">
      <g>
        <polygon class="cls-1" points="74.94 0 74.94 20.6 56.44 0 53.44 0 53.44 23.94 56.44 23.94 56.44 3.34 74.94 23.94 77.94 23.94 77.94 0 74.94 0"/>
        <polygon class="cls-1" points="296.9 0 296.9 20.6 278.4 0 275.4 0 275.4 23.94 278.4 23.94 278.4 3.34 296.9 23.94 299.9 23.94 299.9 0 296.9 0"/>
        <polygon class="cls-1" points="139.36 37.44 139.36 43.53 133.89 37.44 133 37.44 133 44.52 133.89 44.52 133.89 38.43 139.36 44.52 140.25 44.52 140.25 37.44 139.36 37.44"/>
        <rect class="cls-1" x="169.05" y="37.44" width=".89" height="7.08"/>
        <polygon class="cls-1" points="49.44 3 49.44 0 27.94 0 27.94 23.94 49.44 23.94 49.44 20.94 30.94 20.94 30.94 12.75 47.88 12.75 47.88 9.75 30.94 9.75 30.94 3 49.44 3"/>
        <polygon class="cls-1" points="271.44 3 271.44 0 249.94 0 249.94 23.94 271.44 23.94 271.44 20.94 252.94 20.94 252.94 12.75 269.88 12.75 269.88 9.75 252.94 9.75 252.94 3 271.44 3"/>
        <polygon class="cls-1" points="181 38.32 181 37.44 176.13 37.44 176.13 44.52 181 44.52 181 43.63 177.02 43.63 177.02 41.21 181 41.21 181 40.32 177.02 40.32 177.02 38.32 181 38.32"/>
        <polygon class="cls-1" points="151.92 38.32 151.92 37.44 147.05 37.44 147.05 44.52 151.92 44.52 151.92 43.63 147.94 43.63 147.94 41.21 151.92 41.21 151.92 40.32 147.94 40.32 147.94 38.32 151.92 38.32"/>
        <polygon class="cls-1" points="109.05 37.44 109.05 44.52 113.92 44.52 113.92 43.63 109.94 43.63 109.94 37.44 109.05 37.44"/>
        <polygon class="cls-1" points="163.33 37.44 157.24 37.44 157.24 38.32 159.84 38.32 159.84 44.52 160.73 44.52 160.73 38.32 163.33 38.32 163.33 37.44"/>
        <polygon class="cls-1" points="21.44 0 21.44 9.47 3 9.47 3 0 0 0 0 23.94 3 23.94 3 12.47 21.44 12.47 21.44 23.94 24.44 23.94 24.44 0 21.44 0"/>
        <polygon class="cls-1" points="222.56 20.94 222.56 0 219.56 0 219.56 23.94 239.97 23.94 239.97 20.94 222.56 20.94"/>
        <rect class="cls-1" x="243.47" width="3" height="9.75"/>
        <rect class="cls-1" x="243.47" y="12.75" width="3" height="11.19"/>
        <polygon class="cls-1" points="198.44 20.94 198.44 0 195.44 0 195.44 23.94 215.84 23.94 215.84 20.94 198.44 20.94"/>
        <path class="cls-1" d="m105.09,6.75c0-3.73-2.7-6.75-6.22-6.75h-17.38v23.94h3v-10h9.1l8.28,10h3l-8.28-10.01c5.37-.1,8.5-3.06,8.5-7.18Zm-20.59-3.75h14.38c2.07,0,3.53,1.37,3.53,3.27,0,2.48-1.27,4.67-6.09,4.67h-11.81V3h0Z"/>
        <path class="cls-1" d="m191.01,39.43c0-1.1-.8-2-1.84-2h-3.13v7.08h.89v-2.96h2l2.45,2.96h.89l-2.59-3.1c.29,0,1.34-.51,1.34-1.99h0Zm-4.08-1.11h2.24c.61,0,1.04.41,1.04.97,0,.73-.04,1.38-1.36,1.38h-1.93v-2.35h0Z"/>
        <polygon class="cls-1" points="130.17 0 120.75 10.94 119.05 10.94 109.63 0 106.63 0 118.4 13.49 118.4 23.94 121.4 23.94 121.4 13.49 133.17 0 130.17 0"/>
        <path class="cls-1" d="m175.91,23.94h7.31c3.78,0,8.41-2.98,8.41-8.13V0h-3v15.81c0,2.92-3.09,5.13-4.63,5.13h-8.86c-1.54,0-4.63-2.21-4.63-5.13V0h-3v15.81c0,5.15,4.62,8.13,8.41,8.13h0Z"/>
        <path class="cls-1" d="m122.02,44.52h2.16c1.12,0,2.49-.88,2.49-2.4v-4.68h-.89v4.68c0,.86-.91,1.52-1.37,1.52h-2.62c-.46,0-1.37-.65-1.37-1.52v-4.68h-.89v4.68c0,1.52,1.37,2.4,2.49,2.4Z"/>
        <path class="cls-1" d="m161.12,0v15.81c0,2.92-3.09,5.13-4.63,5.13h-7.51c-1.43,0-4.19-1.9-4.58-4.5h-3.02c.36,4.76,4.75,7.5,8.37,7.5h5.97c3.78,0,8.41-2.98,8.41-8.13V0h-3.01Z"/>
      </g>
    </g>
  </g>
</svg>