<?xml version="1.0" encoding="UTF-8"?>
<svg id="Layer_2" data-name="Layer 2" xmlns="http://www.w3.org/2000/svg" viewBox="0 0 278.18 54.72">
  <defs>
    <style>
      .cls-1 {
        fill: #1c252f;
      }
    </style>
  </defs>
  <g id="Layer_2-2" data-name="Layer 2">
    <g id="Layer_1-2" data-name="Layer 1-2">
      <g>
        <path class="cls-1" d="m182.65,20.77c.02,8.44-6.72,15.28-15.06,15.27-8.3,0-15.15-6.76-15.14-14.92,0-8.59,6.63-15.38,15.04-15.41,8.3-.03,15.14,6.77,15.16,15.06Zm-14.68-12.29c-6.7-.35-12.43,4.98-12.84,11.96-.39,6.49,5.08,12.52,11.69,12.89,6.87.39,12.78-4.96,13.17-11.92.38-6.74-5.03-12.56-12.02-12.92h0Z"/>
        <path class="cls-1" d="m95.67,0c.03.55.06.92.06,1.29,0,7.79,0,15.59-.03,23.38,0,2.45,2.7,4.45,4.97,3.46,1.03-.45,2.12-1.3,2.66-2.27,1.89-3.35,2.08-6.9.35-10.4-.79-1.6-2.03-2.71-3.95-2.89-.36-.03-.68-.39-1.02-.6.29-.44.5-1.16.89-1.28,2.32-.68,4.43-.06,6.04,1.67,2.95,3.17,3.52,6.97,2.45,11.06-.55,2.09-1.54,3.96-3.21,5.4-2.62,2.27-5.98,2.27-8.43-.16-.97-.96-1.53-.95-2.31.11-.43.58-1.06,1.01-1.84,1.74-.09-.75-.18-1.17-.18-1.59V7.17c0-.37,0-.75-.02-1.12-.09-2.09-.22-2.23-2.24-2.54-.35-.05-.7-.17-1.42-.35.55-.55.83-1.06,1.24-1.2,1.91-.68,3.85-1.27,5.99-1.95h0Z"/>
        <path class="cls-1" d="m11.32,30.09c-3.46,0-6.95.01-10.44-.03-.22,0-.63-.41-.6-.57.05-.3.31-.71.57-.79,2.71-.9,3.02-1.26,3.03-4.12.02-5.88.02-11.75,0-17.63,0-.78-.11-1.58-.29-2.34-.24-1.02-.93-1.62-1.99-1.81-.54-.09-1.05-.33-1.57-.5,0-.16-.02-.31-.03-.47.4-.16.8-.45,1.2-.46,3.12-.04,6.25-.04,9.37,0,.34,0,.68.42,1.02.64-.3.22-.57.56-.91.65-2.17.59-2.65,1.07-2.72,3.36-.1,3.08-.09,6.16-.12,9.25,0,.23.12.46.31,1.14.61-.76,1.01-1.34,1.5-1.83,2.63-2.68,5.28-5.33,7.91-8,.38-.38.74-.8,1.03-1.25.88-1.33.47-2.19-1.12-2.58-.58-.14-1.62-.62-1.6-.72.27-.99,1.17-.68,1.87-.69,2.58-.03,5.17-.03,7.75,0,.55,0,1.1.25,1.65.39,0,.13.01.27.02.4-.34.2-.65.51-1.01.57-2.88.5-4.93,2.32-6.88,4.29-3.52,3.55-7.02,7.12-10.49,10.72-.45.47-.87,1.2-.89,1.82-.07,2.08,0,4.17.1,6.25.09,1.8.77,2.52,2.58,2.8.92.14,1.12.54.76,1.47v.03Z"/>
        <path class="cls-1" d="m210.24,30.4c-.13-.13-.58-.37-.59-.62-.02-.48.18-.98.39-1.43.07-.15.44-.17.68-.23,2.43-.67,3.72-2.16,3.86-4.44.16-2.69-.69-4.11-3.24-5.12-2.2-.88-4.49-1.54-6.65-2.49-4.76-2.08-6.44-7.81-3.62-11.99,1.38-2.04,3.48-2.75,5.76-3.04.27-.03.81.33.87.59.15.67.02,1.29-.82,1.57-.81.27-1.7.54-2.34,1.06-1.99,1.6-2.16,6.17.85,7.57,1.35.63,2.75,1.17,4.14,1.72,1.01.39,2.04.71,3.06,1.08,5.59,2.02,6.21,6.62,4.88,10.92-1.04,3.38-4.14,4.52-7.22,4.86h0Z"/>
        <path class="cls-1" d="m117.52,10.86h4.95c1,0,2-.06,3,0,.33.02.65.33.98.5-.28.26-.56.52-.85.78-.03.02-.08.02-.12.03-1.56.49-1.73.76-1.09,2.33,1.55,3.81,3.12,7.61,4.75,11.39.33.76.36,1.36.02,2.11-.92,2.04-1.7,4.16-2.67,6.17-.97,2-2.51,3.39-4.89,3.16-.79-.08-1.67-.55-2.26-1.1-.81-.75-.82-1.79-.11-2.71.62-.81,1.74-.98,2.7-.46.15.08.28.18.41.28,1.76,1.29,2.24,1.16,3.2-.82.79-1.63,1.03-3.18.24-4.99-1.84-4.23-3.47-8.54-5.15-12.84-.46-1.18-1.06-2.13-2.33-2.58-.37-.13-.63-.55-.94-.84.06-.14.12-.28.17-.42h0Z"/>
        <path class="cls-1" d="m73.59,29.39c0-.27.32-.63.59-.76.67-.32,1.44-.44,2.08-.8,2.01-1.11,2.07-3.13.02-4.12-1.51-.73-3.22-1.05-4.83-1.61-1.37-.47-2.78-.89-4.04-1.56-1.68-.89-2.54-2.47-2.82-4.34-.36-2.34.83-4.28,3.29-5.23.77-.29,1.6-.46,2.42-.54.32-.03.67.33,1.01.52-.23.26-.42.59-.71.75-.57.32-1.25.48-1.8.84-1.78,1.16-1.75,3.06.19,3.88,1.97.84,4.1,1.32,6.16,1.97.75.24,1.53.43,2.24.75,2.51,1.15,3.72,3.33,3.43,6.05-.25,2.31-1.83,3.89-4.51,4.5-.61.14-1.23.22-1.84.32-.17.17-.88-.27-.87-.65v.03Z"/>
        <path class="cls-1" d="m265.69,13.22c-.15-1.71.14-2.29,1.57-2.62,4.54-1.06,7.77.67,7.97,5.64.14,3.33.08,6.66.03,9.99-.02,1.26.48,1.81,1.68,1.71.87-.08,1.27.3,1.24,1.12-.03.83-.66.81-1.27.81-2.21-.01-4.41-.02-6.62-.01-.65,0-1.17-.06-1.2-.88-.03-.81.4-.93,1.1-.93,1.6-.02,1.86-.3,1.85-1.94-.02-3.21.08-6.42-.16-9.61-.25-3.3-2.23-4.45-5.4-3.49-.23.07-.47.13-.8.22h0Z"/>
        <path class="cls-1" d="m15.26,13.75c2.41,3.64,4.69,7.11,7,10.57.51.76,1.03,1.52,1.62,2.21.96,1.13,2.1,1.99,3.67,2.16.32.04.59.53.89.81-.31.2-.61.56-.92.56-3.45.04-6.91.04-10.36,0-.3,0-.6-.45-.9-.69.31-.24.6-.67.92-.69,2.65-.2,2.91-.66,1.44-2.87-1.84-2.77-3.69-5.54-5.59-8.26-.55-.79-.48-1.31.23-1.9.66-.55,1.26-1.18,2.01-1.9h-.01Z"/>
        <path class="cls-1" d="m257.4,28.1c3.4-.25,2.87-.23,2.88-3.28.02-3.5,0-6.99,0-10.49,0-1.83-.1-1.94-1.92-2.16-.36-.04-.77-.06-1.06-.24-.16-.1-.26-.59-.15-.76.15-.23.51-.45.79-.45,1.66-.03,3.33-.04,4.99.05.24.01.63.59.64.91.03,4.74.06,9.49-.04,14.23-.03,1.31.49,1.85,1.68,1.93.76.05,1.31.27,1.24,1.17-.07.91-.74.85-1.38.85-2.12,0-4.24,0-6.37-.01-1.52,0-1.57-.09-1.31-1.75h.01Z"/>
        <path class="cls-1" d="m46.55,29.92c.23-.64.29-1.44.73-1.88,2.64-2.65,3.3-10.03,1.1-13.95-.38-.67-1.08-1.16-1.51-1.8-.25-.37-.27-.89-.39-1.34.42,0,.9-.12,1.26.03,3.18,1.33,4.86,3.9,5.67,7.12,1.13,4.51-.75,9.14-4.56,11.3-.59.34-1.27.53-1.91.79,0,0-.39-.27-.39-.27Z"/>
        <path class="cls-1" d="m237.02,30.04c-3.42.18-7.07-3.83-7.5-7.9-.6-5.53,2.58-10.65,7.47-11.47-.34.74-.47,1.37-.85,1.79-3.71,4.23-3.63,11.92.19,16.17.3.34.42.84.69,1.41Z"/>
        <path class="cls-1" d="m247.05,20.25c-.12,4.43-1.82,7.52-5.43,9.43-.41.22-.99.14-1.49.2.08-.54,0-1.22.28-1.59,2.91-3.66,3.11-7.8,2.08-12.07-.32-1.33-1.4-2.46-2.08-3.72-.25-.47-.36-1.02-.53-1.53.5.04,1.06-.07,1.48.13,4,1.91,5.38,5.4,5.7,9.14h0Z"/>
        <path class="cls-1" d="m43.21,30.3c-.88-.38-1.86-.63-2.64-1.16-3.28-2.22-4.77-5.41-4.43-9.32.35-4.05,2.2-7.2,6.06-8.9.3-.13.69-.06,1.04-.09-.02.39-.02.79-.08,1.17-.02.14-.18.27-.29.39-3.84,4.31-3.79,11.84.08,16.24.3.34.45.8.67,1.2l-.41.46h0Z"/>
        <path class="cls-1" d="m136.66,52.84c.81-2.25,1.63-4.49,2.55-7.05,2.01,2.19,1.86,4.83,3.08,6.98.6-1.9,1.13-3.63,1.7-5.35.32-.96.35-.94,1.54-1.03-.04.33,0,.66-.11.94-.72,2-1.42,4-2.22,5.96-.19.46-.72.77-1.09,1.15-.36-.39-.89-.73-1.05-1.19-.57-1.67-1.01-3.39-1.61-5.49-.39,1.07-.67,1.81-.93,2.55-.4,1.14-.75,2.29-1.21,3.41-.36.87-1.19,1.04-1.48.31-1-2.47-1.83-5.01-2.74-7.57,1.32-.32,1.64.34,1.86,1.1.49,1.74.96,3.49,1.44,5.23.09,0,.18.03.27.04h0Z"/>
        <path class="cls-1" d="m129.6,11.01h8.35c.05.13.1.25.15.38-.35.26-.67.66-1.06.76-1.16.3-1.86,1.06-2.31,2.1-1.34,3.09-2.66,6.19-3.99,9.29-.11.26-.23.51-.4.87-.78-.88-1.11-1.72-.68-2.78.85-2.13,1.73-4.24,2.49-6.39.77-2.16.54-2.46-1.61-3.1-.43-.13-.77-.56-1.15-.86.07-.09.14-.18.21-.27h0Z"/>
        <path class="cls-1" d="m200.07,25.26c0-.71.05-1.42,0-2.12-.08-.83.31-1.1,1.05-1.17.73-.06.93.3.99.94.27,2.97,1.8,4.85,4.81,5.36.89.15.88.73.81,1.39-.08.77-.62.81-1.19.68-1.69-.4-3.38-.83-5.07-1.26-1.08-.27-1.59-.91-1.43-2.08.08-.57,0-1.16,0-1.74h.03Z"/>
        <path class="cls-1" d="m202.39,54.71c-.36-.64-.71-1.28-1.08-1.9-.33-.54-.56-1.33-1.04-1.56-1.56-.75-2.25-.2-2.29,1.52,0,.6.48,1.65-.66,1.67-1.24.02-.72-1.09-.74-1.72-.06-1.74-.06-3.49,0-5.23,0-.36.44-.98.71-.99,1.27-.07,2.6-.16,3.83.11,2.02.45,2.34,1.96.93,3.46-.21.23-.23.79-.12,1.13.24.74.68,1.42.93,2.16.12.36-.31,1.31-.48,1.36h0Zm-3.16-7.46c-.7-.08-1.38.06-1.23,1.09.1.7-.54,1.83.9,1.89,1.47.05,2.61-.63,2.65-1.52.04-.87-.75-1.38-2.32-1.45h0Z"/>
        <path class="cls-1" d="m209.65,1.15c2.32-.15,4.47.58,6.61,1.34.24.09.45.59.46.91.05,1.45.07,2.91-.02,4.36-.02.32-.5.77-.85.88-.59.19-1.1,0-1.28-.77-.21-.92-.35-1.97-.91-2.65-.67-.81-1.67-1.52-2.67-1.84-1.2-.39-1.66-.93-1.34-2.23Z"/>
        <path class="cls-1" d="m161.97,50.59c-.71.06-1.42.2-2.13.18-1.43-.04-2.21,1.03-1.54,2.3.14.26.66.42,1.02.45.7.05,1.41-.07,2.12-.03.38.02.75.25,1.13.38l-.05.49c-1.17.04-2.34.17-3.5.11-2.45-.11-2.45-.15-2.45-2.6,0-1.5-.05-3,.04-4.49.02-.33.49-.89.79-.91,1.37-.1,2.74-.07,4.11-.04.23,0,.46.24.68.38-.23.18-.44.5-.68.52-.7.07-1.41.06-2.12.02-.82-.05-1.25.2-1.23,1.11.03.92.32,1.38,1.34,1.32.81-.05,1.63.07,2.45.12v.7h.02Z"/>
        <path class="cls-1" d="m184.07,54.35c-1.44.36-1.76-.46-1.96-1.19-.27-1.03-.83-1.34-1.82-1.14-.36.07-.75.04-1.12,0-.92-.11-1.51.23-1.77,1.15-.09.31-.21.69-.44.87-.28.22-.7.25-1.05.37,0-.34-.14-.73-.02-1.02.88-2.06,1.79-4.12,2.73-6.16.49-1.07,1.56-1.35,2-.47,1.22,2.43,2.27,4.95,3.45,7.58h0Zm-2.67-3.29c-.62-1.26-1.1-2.21-1.57-3.17-.13.02-.25.04-.38.05-.34,1.01-.69,2.01-1.11,3.27,1.14-.06,1.93-.1,3.06-.15h0Z"/>
        <path class="cls-1" d="m81.7,54.39c-1.75,0-3.49.02-5.24-.04-.17,0-.45-.54-.46-.83-.05-2.03-.02-4.07-.05-6.11-.01-.65.15-1.04.88-1.04,1.33,0,2.66-.04,3.99,0,.27,0,.52.37.78.56-.26.13-.52.36-.78.37-1.03.04-2.07.02-3.26.02v2.33c1.29.07,2.53.15,3.77.22l.03.65c-.88.09-1.77.33-2.62.22-1.3-.17-1.44.47-1.46,1.48-.02,1.15.49,1.39,1.55,1.28.96-.1,1.94.07,2.92.12-.01.25-.03.5-.04.75v.02Z"/>
        <path class="cls-1" d="m121.71,50.4c-.83.57-1.85.46-2.76.35-1.42-.16-1.18.7-1.21,1.54-.03,1,.26,1.46,1.38,1.3,1.01-.14,2.1-.33,3.03.27v.44c-.78.04-1.57.09-2.35.11-2.35.06-3.52-1.1-3.51-3.47,0-1.17.03-2.33-.03-3.5-.04-.83.28-1.09,1.09-1.06,1.25.06,2.5-.02,3.74.02.25,0,.49.31.74.47-.24.15-.48.43-.73.44-.87.06-1.75,0-2.62.04-1.17.08-.73.99-.74,1.62-.02.67.27.92,1.01.85.97-.09,1.96.02,2.95.04,0,.17.01.35.02.52v.02Z"/>
        <path class="cls-1" d="m63.95,26.66c0-.5-.1-1.03.03-1.49.09-.3.49-.7.77-.71.31-.02.9.32.92.56.27,2.21,1.75,3.05,3.66,3.54.36.09.61.61.91.93-.38.15-.78.46-1.14.43-1.24-.13-2.46-.42-3.69-.57-1.2-.15-1.66-.76-1.48-1.93.04-.24,0-.5,0-.75h.02Z"/>
        <path class="cls-1" d="m95.6,46.31c1.95.4,2.15,2.61,3.49,3.7,1.29-1.18,1.5-3.28,3.8-3.81-.25.59-.34.96-.54,1.26-.42.62-.86,1.24-1.37,1.78-1.08,1.13-1.56,2.41-1.29,3.97.1.56.14,1.33-.75,1.18-.28-.05-.7-.79-.64-1.15.34-1.95-.69-3.34-1.74-4.75-.46-.62-.88-1.26-1.32-1.89.12-.1.24-.2.36-.3h0Z"/>
        <path class="cls-1" d="m79.76,13.43c0,.39.08.71-.02.97-.15.41-.41.78-.63,1.16-.44-.28-1.13-.48-1.27-.87-.57-1.65-1.72-2.46-3.33-2.86-.38-.1-.66-.59-.98-.89.42-.17.86-.53,1.25-.48,1.4.17,2.8.42,4.17.76,1.35.34.58,1.53.8,2.22h0Z"/>
        <path class="cls-1" d="m181.39,51.05c-1.13.06-1.93.1-3.06.15.43-1.26.77-2.27,1.11-3.27.13-.02.25-.04.38-.05.47.96.95,1.91,1.57,3.17h0Z"/>
        <path class="cls-1" d="m169.38,15.58c-.28-.44-.59-.87-.85-1.33-.82-1.48-2.05-1.95-3.41-1.28-1.19.59-1.65,2.25-.82,3.59.79,1.27,1.77,2.42,2.7,3.59,1.24,1.55,2.52,3.07,3.86,4.68,1.07-1,1.4-2.28,1.57-3.58.02-.16-.71-.41-1.08-.63-.26-.16-.5-.35-.75-.53.17-.21.34-.59.51-.59,1.36-.03,2.73-.02,4.09.04.26,0,.51.25.84.42-.42.35-.55.54-.66.53-1.63-.11-1.82.94-1.96,2.21-.07.67-.46,1.33-.79,1.95-.78,1.46-.56,2.37.87,3.23.31.19.66.32.98.48-.63,1.45-2.11,1.66-3.15.44-1.8-2.13-3.55-4.31-5.32-6.46-.76-.93-1.54-1.85-2.31-2.77-2.81,2.36-2.24,7.31.98,8.43.85.3,1.91.05,2.87-.05.54-.06,1.23-.6,1.44.22.08.31-.57,1.06-1.02,1.2-1.87.58-3.8.71-5.56-.35-2.98-1.79-3.51-6.08-1.15-8.96.21-.26.43-.52.68-.73.74-.6.83-1.08.38-2.08-.92-2.02-.35-4.91,2.35-5.53,1.49-.34,3.17.14,4.77.29.18.02.48.31.49.49.05,1,.02,2,.02,3-.19.03-.38.06-.57.09h0Z"/>
      </g>
    </g>
  </g>
</svg>