<?xml version="1.0" encoding="UTF-8"?>
<svg id="Layer_2" data-name="Layer 2" xmlns="http://www.w3.org/2000/svg" viewBox="0 0 925.83 304.04">
  <defs>
    <style>
      .cls-1 {
        fill: #1c252f;
      }
    </style>
  </defs>
  <g id="Layer_2-2" data-name="Layer 2">
    <g id="Layer_1-2" data-name="Layer 1-2">
      <g>
        <path class="cls-1" d="m462.78,0c33.46-.08,60.42,26.64,60.69,60.15.27,33.15-27.01,60.68-60.2,60.75-33.76.07-61.14-26.89-61.2-60.25C402.02,27.02,428.99.08,462.78,0Zm-18,63.89c0,1.48.02,2.46,0,3.44-.17,7.62-.98,7.87-8.32,7.02-2.83-.33-6.5,1.23-8.8,3.12-3.07,2.52-3.14,6.54-1.38,10.14,1.68,3.43,3.51,6.83,5.64,10,4.01,6,11.78,5.9,15.89-.07,3.3-4.8,7.19-8.06,13.59-6.31,1.53.42,3.33.23,4.93-.08,8.06-1.56,14.88,1.7,21.37,5.66,3.93,2.4,7.75,2.74,10.85-.6,2.7-2.91,5.09-6.17,7.2-9.55,1.99-3.17,1.7-6.99-1.35-8.98-2.27-1.48-6.47-2.53-8.48-1.4-5.91,3.33-10.92.02-14.82-2.41-2.51-1.56-2.3-7.5-3.53-12.37,5.65,1.81,9.86,3.34,14.18,4.49,4.86,1.29,8.84-1.05,9.49-5.44.65-4.38-1.71-6.89-5.63-8.18-6.6-2.18-13.21-4.32-20.37-6.66,2.84-5.27,5.45-9.97,7.93-14.73,2.97-5.71-.74-14.64-5.5-12.99-4.89,1.69-8.32-.51-12.45-1.08-3.18-.44-6.53.39-9.81.66-1.39.12-2.92.68-4.16.3-5.89-1.83-9.43-.93-12.06,3.42-2.84,4.7-1.91,10.94,1.73,14.76,2.58,2.71,4.68,5.88,7.28,9.22-6.77,2.9-12.49,5.16-18.04,7.8-3.95,1.88-5.36,5.93-3.88,9.65,1.56,3.93,5.55,5.82,9.81,4.45,2.81-.91,5.53-2.09,8.67-3.29h.02Z"/>
        <path class="cls-1" d="m587.54,272.49c-12.94-6.88-9.58-18.64.41-23.06-3.56-8.03-3.75-15.79,3.25-22.22,6.38-5.87,14.22-6.68,22.35-5.63,4.15-10.05,11.58-13.74,20.33-10.15,3.97,1.63,7.12,4.46,6.66,8.94-.24,2.37-2.23,4.95-4.16,6.59-.9.76-4.62.04-5.11-.97-.95-1.95-.53-4.57-.75-8.12-2.02-1.62-5.07-1.49-7.61,1.48-2.42,2.83-1.36,5.12,1.34,7.58,6,5.48,7.49,12.58,4.98,20.12-2.65,7.95-9.09,12.09-17.03,12.6-5.29.34-10.8-1.06-16.06-2.3-3.34-.79-6.49-1.93-7.77,2.29-1.31,4.3,1.77,6.17,5.31,6.73,3.75.59,7.63.36,11.42.73,5.94.58,11.96.87,17.75,2.18,5.86,1.33,10.63,4.82,12.98,10.71,3.28,8.22-.79,16.78-10,20.5-10.71,4.33-21.76,4.48-32.84,1.64-7.09-1.82-13.23-5.17-14.72-13.17-1.45-7.79,2.55-12.95,9.27-16.47h0Zm19.71,24.56c4.91-1.28,10.11-1.98,14.64-4.11,2.32-1.08,4.71-4.7,4.74-7.2.03-2.5-2.28-6.28-4.56-7.33-9.46-4.37-19.46-4.37-28.91-.06-2.44,1.11-4.87,5-4.97,7.7-.08,2.41,2.52,6.04,4.89,7.18,4.2,2.02,9.12,2.56,14.18,3.82h-.01Zm.55-44.93c7.62.02,13.18-4.68,13.28-11.22.1-6.63-5.96-12.09-13.28-11.98-7.19.11-12.8,5.42-12.69,12.01.1,6.59,5.3,11.17,12.69,11.19Z"/>
        <path class="cls-1" d="m315.31,208.45c0-1.75-.42-3.15.09-3.97.95-1.5,2.43-3.67,3.71-3.68,1.3,0,2.79,2.12,3.85,3.57.48.65.11,1.93.1,2.93-.03,7.83-.19,15.65-.03,23.47.06,3.2-.22,5.83-4.08,6.04-4.11.22-5.01-2.46-4.85-5.9.02-.5,0-1,0-1.5-.09-11.15-4.05-17.22-13.02-19.94-9.41-2.85-19.67.68-25.18,8.68-8.28,12.01-8.17,36.65.21,48.67,5.65,8.11,15.77,11.49,25.73,8.61,8.98-2.6,13.43-8.64,14.04-19.41.2-3.48,1.22-6.13,5.17-5.71,4.18.44,4.62,3.75,4.41,7.12-1.1,17.51-16.69,29.52-35.16,27.12-16.11-2.09-26.61-12.09-30.12-28.97-2.11-10.13-1.51-20.18,1.39-30.14,7.6-26.08,37.84-32.22,53.73-17h0Z"/>
        <path class="cls-1" d="m374.11,276.29c-7.26,8-16.14,8.81-25.52,6.87-8.83-1.83-14.17-8.17-14.26-16.22-.09-8.19,4.86-14.73,13.62-16.8,6.28-1.49,12.89-1.64,19.13-3.26,2.37-.62,5.46-3.46,5.8-5.67.43-2.8-1.55-6-2.63-8.98-.19-.51-1-.84-1.58-1.17-5.73-3.25-13.81-2.01-17.39,3.08-.34,3.04.19,6.68-1.33,8.92-.95,1.4-5.35,1.62-7.56.74-3.98-1.57-5.1-5.86-3.24-9.26,2.13-3.88,5.12-8.05,8.83-10.15,7.9-4.46,16.61-4.37,25.02-.68,6.66,2.92,9.8,8.34,9.85,15.44.07,8.49-.18,16.97-.25,25.46-.02,2.49-.34,5.12.34,7.43.46,1.56,2.37,3.62,3.75,3.71,1.22.08,3.38-2.06,3.73-3.56.68-2.85.04-6,.61-8.9.31-1.56,2-2.85,3.07-4.26,1.49,1.24,4.21,2.42,4.26,3.72.2,4.76.3,9.79-1,14.31-2.11,7.33-15.12,8.9-20.7,2.86-.89-.96-1.53-2.15-2.56-3.63h.01Zm-1.23-22.1c-5.81.98-11.63,1.88-17.42,2.96-2.26.42-4.6.93-6.64,1.95-5.69,2.82-6.25,10.59-1.18,14.47,8.38,6.41,23.7.39,25.18-10.04.46-3.23.07-6.57.07-9.33h0Z"/>
        <path class="cls-1" d="m548.48,276.34c-7.73,8.37-17.24,8.98-27.27,6.4-7.26-1.86-11.9-7.73-12.37-14.62-.54-7.91,2.9-14.09,10.53-16.86,4.77-1.73,10.04-2.12,15.09-3.06,2.29-.42,4.63-.58,6.89-1.09,3.56-.8,6.08-2.87,6.42-6.7.35-3.94-1.02-7.19-4.64-9.24-5.7-3.22-13.61-2.13-17.5,1.35-.35,4.5.29,8.11-1.16,10.41-.9,1.43-5.19,1.67-7.56,1-3.73-1.06-5.61-6.15-3.26-10.08,2.27-3.8,5.55-7.63,9.35-9.74,7.29-4.05,15.38-3.9,23.22-.9,8.05,3.08,11.57,9.56,11.25,20.24-.23,7.49-.45,14.98-.67,22.48-.03,1.16-.13,2.34,0,3.49.34,2.97.37,6.66,4.49,6.52,3.85-.13,3.67-3.62,3.77-6.46.07-2.16-.42-4.47.19-6.45.48-1.54,2.23-3.65,3.5-3.71,1.31-.06,3.79,1.99,3.88,3.24.31,4.44.22,9-.49,13.39-.72,4.45-4.19,6.59-8.49,7.3-5.03.83-9.65.18-13.18-3.96-.74-.87-1.29-1.91-1.99-2.96h0Zm-.76-22.24c-6.06,1.04-11.75,1.92-17.4,3.02-2.59.5-5.31,1.04-7.59,2.27-5.23,2.81-5.67,10.17-1.1,13.91,7.83,6.41,23.14,1.33,25.21-8.54.76-3.64.64-7.47.88-10.66h0Z"/>
        <path class="cls-1" d="m25.53,242.91c0,8.16-.08,16.33.02,24.49.08,6.12,1.32,7.43,7.29,7.51,6.33.09,12.68.23,18.98-.23,7.37-.53,9.21-2.85,9.2-10.17,0-3.5-.13-7-.12-10.49,0-2.9,1.25-4.86,4.42-4.86,3.34,0,4.72,1.86,4.7,5.1-.05,6.97.01,13.94-.03,20.9-.03,5.41-2.15,7.61-7.59,7.55-14.98-.18-29.96-.55-44.94-.7-3.82-.04-7.64.55-11.47.68-2.98.1-6.07-.26-5.99-4.22.08-4.06,3.06-4.02,6.13-3.68,6.34.7,8.48-.58,8.62-7,.37-17.15.3-34.31.12-51.46-.05-4.7-2.53-6.31-7.3-5.89-1.16.1-2.55.66-3.42.21-1.54-.8-4.02-2.43-3.86-3.32.29-1.68,1.9-3.8,3.48-4.4,1.85-.7,4.24.12,6.39.11,7.46-.03,14.93-.13,22.39-.2,1.49,0,3.34-.54,4.37.15,1.54,1.02,2.5,2.92,3.71,4.44-1.42,1.11-2.77,3.06-4.28,3.19-10.68.95-10.76.83-10.96,11.81-.13,6.83-.02,13.66-.02,20.48h.16Z"/>
        <path class="cls-1" d="m662.42,227.63c6.63-5.99,15.22-7.92,24.74-5.34,9.66,2.61,14.51,8.91,14.63,18.9.11,8.99-.05,17.99.06,26.98.07,6.15,1.04,7.01,6.9,6.51,2.78-.24,5.33.08,5.5,3.41.17,3.4-2.39,4.44-5.32,4.62-.81.05-1.64-.3-2.47-.3-5.8-.03-11.6-.03-17.39,0-1.16,0-2.33.36-3.47.28-2.94-.21-5.46-1.35-5.11-4.76.33-3.28,3.06-3.83,5.68-3.17,5.18,1.29,6.68-1.37,6.69-5.78.02-8.66.17-17.33-.13-25.98-.28-8.07-4.51-12.57-11.95-13.51-8.2-1.04-15.9,3.23-17.78,10.4-.95,3.65-1.09,7.56-1.19,11.36-.18,6.16-.08,12.32,0,18.49.05,3.79,1.51,5.88,5.9,5.25,1.85-.26,4.08.54,5.75,1.52.59.35.53,3.52-.14,3.94-1.82,1.12-4.1,1.93-6.24,2.02-6.44.27-12.9.14-19.35.17-1.16,0-2.73.47-3.4-.11-1.57-1.34-2.71-3.18-4.03-4.82,1.65-1.02,3.27-2.89,4.94-2.93,6.8-.14,7.49-.61,7.5-7.51v-28.98c0-6.94-.61-7.27-7.49-7.52-1.71-.06-3.34-2.23-5-3.42,1.69-1.46,3.21-3.86,5.09-4.19,3.8-.66,7.87-.63,11.68,0,1.81.3,3.27,2.64,5.4,4.5v-.03Z"/>
        <path class="cls-1" d="m881.85,253.86c-.8,15.5,10.16,25.14,23.22,21.32,5.67-1.66,8.95-5.59,10.57-11.01.93-3.09,2.29-5.39,5.94-4.19,3.58,1.18,3.98,4.44,2.53,6.94-2.61,4.48-5.23,9.68-9.3,12.47-16.57,11.36-38.3,2.63-41.89-17.02-1.33-7.25-.74-15.41,1.16-22.57,3.67-13.84,17.02-21.12,31.21-18.53,12.75,2.33,20.69,13.12,20.54,27.38-.04,3.96-1.52,5.29-5.32,5.25-10.99-.13-21.99-.05-32.98-.05h-5.68Zm33.9-8.83c-1.01-10.79-7.42-16.69-16.9-16.19-7.1.37-16.15,6.32-15.65,16.19h32.55Z"/>
        <path class="cls-1" d="m728.13,253.85c-1.25,14.94,10.09,25.05,23.09,21.39,5.69-1.6,8.98-5.5,10.64-10.92.92-3.01,2.21-5.5,5.88-4.39,3.96,1.2,3.87,4.69,2.58,7.38-1.83,3.82-3.97,7.92-7.09,10.6-14.4,12.39-37.44,5.95-43.32-12.02-3.57-10.91-2.81-21.75,2.85-31.9,6.13-10.99,19.5-15.83,32.06-11.86,11.27,3.56,18.28,14.87,17.27,27.39-.29,3.62-2.11,4.38-5.21,4.36-10.83-.07-21.66-.03-32.49-.03h-6.26Zm33.72-8.82c-.35-10.07-6.6-16.11-15.77-16.19-9.05-.09-17.52,8.11-16.71,16.19h32.48Z"/>
        <path class="cls-1" d="m123.98,276.15c-7.68,7.72-16.01,8.96-24.92,7.15-10.55-2.14-15.43-8.1-15.67-18.86-.2-8.83.02-17.66-.19-26.49-.15-6.6-1-6.97-7.68-7.16-1.76-.05-3.46-2.09-5.18-3.22,1.65-1.53,3.15-4.12,4.97-4.37,4.67-.63,9.47-.3,14.22-.2,3.25.06,3.52,2.45,3.47,4.95-.15,7.83-.34,15.66-.43,23.49-.04,3.33,0,6.67.2,9.99.57,9.56,4.64,14.05,13.03,14.52,8.96.51,15.25-4.13,16.24-13.27.94-8.74.88-17.6.93-26.41.02-4.23-2.23-6.41-6.84-5.45-2.79.59-5.85.39-5.99-3.27-.14-3.62,2.72-4.55,5.87-4.56,4.25,0,8.5.02,12.76-.02,3.95-.04,4.01,2.67,3.99,5.48-.1,12.66-.2,25.32-.29,37.98,0,1.33.03,2.66.1,3.99.19,3.49,1.74,4.96,5.5,4.57,2.02-.21,4.31.65,6.18,1.62.5.26.36,3.6-.28,3.91-2.04,1-4.44,1.5-6.74,1.72-2.27.22-4.75-.7-6.85-.11-4.52,1.26-6.94.39-6.38-5.99h-.02Z"/>
        <path class="cls-1" d="m232.6,277.63c-6.87,6.89-16.12,7.81-25.98,5.03-7.86-2.22-12.51-7.56-12.87-15.87-.35-7.98-.2-15.97-.31-23.96-.03-2.33-.11-4.66-.28-6.98-.26-3.79-1.87-5.72-6.13-5.14-1.86.25-4.11-.52-5.78-1.51-.63-.38-.65-3.54,0-3.95,1.81-1.14,4.07-1.89,6.23-2.09,3.39-.32,6.85.16,10.25-.13,3.88-.33,5.55,1.09,5.49,5.01-.19,11.31-.65,22.64-.23,33.94.42,11.34,9.07,16.68,19.83,12.99,4.81-1.65,8.44-4.92,8.9-9.85.91-9.74,1.15-19.55,1.27-29.34.05-4.08-2.48-5.87-6.74-4.96-2.81.6-5.82.31-6.01-3.3-.19-3.69,2.77-4.52,5.85-4.54,4.25-.04,8.49.03,12.74,0,3.51-.03,3.98,2.19,3.96,4.99-.1,13.15-.17,26.3-.2,39.45,0,7.15.22,7.35,7.51,7.17,2.72-.06,5.21.96,4.52,3.74-.43,1.76-3,3.91-4.89,4.21-3.98.64-8.22.67-12.17-.05-1.83-.34-3.21-3.04-4.98-4.86h.02Z"/>
        <path class="cls-1" d="m441.61,222.53c2.23-.72,4.42-1.42,6.61-2.12.68,2.19,1.74,4.34,1.96,6.58.36,3.78.13,7.6.27,11.41.1,2.91.45,6.04-3.42,6.64-4.18.65-4.34-2.67-4.68-5.5-.7-5.88-3.42-8.84-9.59-10.28-5.66-1.32-12.14.8-14.81,4.84-2.89,4.37-1.45,9.7,3.57,11.44,3.73,1.29,7.78,1.65,11.68,2.46,2.93.61,5.9,1.08,8.76,1.93,6.37,1.89,10.98,5.61,11.77,12.67.86,7.7-1.86,13.91-8.73,17.62-10.13,5.48-20.41,5.12-30.78-.48-.3.79-.37,1.8-.89,2.17-1.59,1.12-3.42,2.83-5.02,2.69-1.22-.11-3.09-2.63-3.17-4.16-.36-6.43-.39-12.91.03-19.33.09-1.43,2.5-2.72,3.85-4.07,1.25,1.28,3.53,2.53,3.58,3.86.18,4.9.64,9.42,5.6,11.89,5.99,2.99,12.27,4.39,18.82,2.17,4.29-1.45,7.04-4.39,7.03-9.23-.01-4.88-3.17-7.18-7.38-8.11-4.05-.89-8.21-1.26-12.31-1.89-12.27-1.88-17.82-7.34-17.49-17.19.31-9.48,8.06-16.9,19.1-17.39,5.33-.24,10.73.9,15.67,1.38h-.03Z"/>
        <path class="cls-1" d="m841.21,231.26c0,12.06-.17,22.89.12,33.7.07,2.64.96,6.01,2.74,7.63,1.72,1.57,5.55,2.42,7.63,1.57,2.27-.93,4.38-3.93,5.14-6.46.98-3.25.49-6.92.74-10.41.21-2.88,1.76-5.2,4.7-4.41,1.69.46,3.85,2.86,4.01,4.56.37,3.92-.02,7.99-.7,11.9-1.71,9.72-8.26,14.33-18.83,13.67-9.2-.57-14.21-5.7-14.57-15.68-.34-9.48-.29-18.99-.11-28.48.09-4.66-.1-8.18-6.35-7.81-1.33.08-2.84-2.76-4.27-4.26,1.63-1.33,3.33-3.86,4.87-3.76,4.92.31,6.16-1.72,5.74-6.13-.27-2.8-.54-5.81.21-8.44.49-1.73,2.75-4.01,4.31-4.08,1.41-.07,3.89,2.33,4.23,3.98.69,3.36.39,6.96.25,10.45-.12,2.98.96,4.26,4.04,4.11,3.49-.17,7.07-.45,10.46.16,1.79.32,3.25,2.44,4.86,3.75-1.46,1.48-2.79,4.04-4.41,4.24-4.71.57-9.53.2-14.82.2h.01Z"/>
        <path class="cls-1" d="m795.3,222.88c5.15,0,9.6.02,14.05,0,2.83-.02,5.07.82,5.16,4.04.09,3.21-2.15,4.32-4.93,4.38-4.46.1-8.92.03-14.25.03,0,4.54-.02,8.45,0,12.36.04,7.49-.11,14.98.22,22.46.26,6,3.14,8.76,8.12,8.63,4.63-.12,7.2-2.95,7.68-8.68.26-3.15-.12-6.42.65-9.42.41-1.58,2.69-3.74,4.1-3.71,1.48.03,4.26,2.45,4.16,3.63-.51,6.37-.85,13-2.98,18.92-2.24,6.24-10.2,8.66-18.56,7.3-6.83-1.11-11.26-4.85-11.84-12.18-.84-10.75-.76-21.59-.71-32.38.02-4.42-.46-7.3-5.96-7.18-1.49.03-4.03-2.36-4.34-3.97-.58-3,1.92-4.61,4.74-4.25,4.66.58,5.93-1.45,5.51-5.67-.24-2.47-.06-4.99-.01-7.48.06-3.13.9-5.68,4.74-5.65,3.63.03,4.34,2.58,4.41,5.43.11,4.28.03,8.56.03,13.39h.01Z"/>
        <path class="cls-1" d="m478.76,231.4c0,12.24-.16,23.38.06,34.51.12,5.83,3.26,8.96,8,8.89,4.82-.07,7.54-3.03,8.01-8.97.22-2.81.04-5.66.22-8.48.18-2.84,1.66-5.23,4.63-4.45,1.68.44,4.02,2.9,4.02,4.45,0,5.09-.28,10.37-1.64,15.24-2.23,8-9.39,11.48-19.21,10.31-7.76-.92-12.51-5.6-12.9-13.98-.48-10.3-.34-20.63-.28-30.94.03-4.18-.49-7.2-5.87-6.73-2.67.23-5.5-1.22-4.59-4.32.51-1.73,3.36-4.01,5.05-3.93,4.9.25,5.67-2.08,5.4-6.04-.18-2.65-.08-5.32,0-7.99.08-2.79,1.04-4.9,4.33-4.93,3.51-.03,4.6,2.16,4.67,5.17.08,2.99.25,6.01-.03,8.98-.36,3.87,1.3,5.01,4.91,4.73,2.98-.23,5.99-.05,8.98-.05,2.7,0,5.09.47,5.29,3.86.22,3.69-2.36,4.51-5.18,4.62-4.44.17-8.89.05-13.91.05h.04Z"/>
        <path class="cls-1" d="m169.56,202.83v6.07c0,19.47-.05,38.94,0,58.42.02,7.21.4,7.27,7.47,7.47,1.63.05,3.22,1.95,4.82,3-1.35,1.61-2.53,3.43-4.12,4.73-.67.54-2.23-.06-3.38-.07-5.96-.03-11.91-.04-17.87-.07-1.8,0-3.92.51-5.3-.27-1.42-.79-3.03-3-2.84-4.36.16-1.22,2.6-2.93,4.12-3.02,7.9-.51,8.03-.41,8.05-8.42.04-16.31.05-32.62-.03-48.93-.03-7.38-.52-7.76-7.93-7.46-2.74.11-5.35-.23-5.48-3.53-.13-3.41,2.42-4.54,5.39-4.45,5.39.17,10.77.55,17.08.89h0Z"/>
      </g>
    </g>
  </g>
</svg>