<?xml version="1.0" encoding="UTF-8"?>
<svg id="Layer_2" data-name="Layer 2" xmlns="http://www.w3.org/2000/svg" viewBox="0 0 299.15 103.86">
  <defs>
    <style>
      .cls-1 {
        fill: #1c252f;
      }
    </style>
  </defs>
  <g id="Layer_2-2" data-name="Layer 2">
    <g id="Layer_1-2" data-name="Layer 1-2">
      <g>
        <path class="cls-1" d="m219.74.22c-3.34,1.34-6.69,2.64-10,4.04-7.79,3.3-15.55,6.67-23.34,9.96-9.78,4.12-19.59,8.19-29.4,12.26-6.89,2.86-13.76,5.79-20.73,8.45-4.16,1.58-8.56,2.46-13.07,2.04-4.64-.43-8.24-2.52-10.03-7.02-1.24-3.12-.75-6.29.19-9.4,1.69-5.55,4.98-10.18,8.62-14.58,1.63-1.97,3.39-3.83,5.26-5.67-.6,1.35-1.22,2.68-1.78,4.04-1.22,2.96-1.95,6.02-1.39,9.23.71,4.08,3.56,6.76,7.63,7.48,2.93.52,5.82.29,8.65-.41,7.09-1.75,14.14-3.63,21.2-5.47,13.93-3.63,27.86-7.26,41.78-10.9,5.13-1.34,10.26-2.71,15.39-4.06.31-.08.62-.14.94-.21.03.08.05.15.08.23h0Z"/>
        <path class="cls-1" d="m262.11,86.47c.45,9.12-7.2,17.16-16.44,17.38-10.12.24-17.35-7.99-17.5-16.89-.17-9.72,6.92-17.73,16.83-17.81,9.95-.08,17.48,7.92,17.1,17.33h.01Zm-4.9-.04c-.46-1.79-.7-3.67-1.41-5.34-3.01-7.01-11.68-9.21-17.73-4.55-3.68,2.83-5.05,6.74-4.63,11.22.89,9.48,10.19,13.62,17.67,9.48,4.08-2.26,5.76-6.13,6.11-10.81h0Z"/>
        <path class="cls-1" d="m273.13,69.49c6.97,7.26,13.95,14.51,21.1,21.96v-21.29h4.92v33.45c-7.1-7.36-14.05-14.55-21-21.75-.1.03-.19.06-.29.1v1.51c0,6.1-.03,12.2,0,18.3,0,1.02-.33,1.33-1.29,1.25-.87-.07-1.75-.07-2.62-.01-.95.07-1.19-.34-1.18-1.24.03-9.59.03-19.18.03-28.76v-3.35c.11-.06.21-.11.32-.17h0Z"/>
        <path class="cls-1" d="m179.46,95.54c1.26.63,2.28,1.15,3.32,1.65,2.71,1.28,5.55,1.7,8.49,1.16,2.27-.41,3.78-2.2,3.98-4.51.18-1.98-.9-3.67-3-4.53-1.19-.49-2.44-.8-3.65-1.24-1.32-.47-2.69-.89-3.94-1.52-3.85-1.94-5.85-5.54-5.35-9.42.46-3.64,3.52-6.82,7.51-7.73,3.77-.85,7.24.1,10.52,1.94.28.16.63.55.61.82-.07,1.52-.25,3.03-.4,4.73-.91-.54-1.61-.96-2.33-1.36-2.09-1.17-4.35-1.77-6.7-1.39-1.11.18-2.31.78-3.12,1.55-1.83,1.73-1.6,4.31.54,5.63,1.45.9,3.2,1.3,4.79,1.98,1.94.82,3.97,1.5,5.75,2.59,5.55,3.39,4.87,12.63-.65,16.08-3.59,2.25-7.41,2.13-11.29,1.15-1.24-.31-2.42-.86-3.6-1.37-.38-.16-.89-.53-.94-.86-.25-1.7-.37-3.42-.55-5.36h0Z"/>
        <path class="cls-1" d="m137.68,103.83c-5.29-11.48-10.4-22.57-15.59-33.84,1.77,0,3.41-.07,5.03.05.36.03.77.67.98,1.12,3.03,6.45,6.04,12.92,9.05,19.39.16.34.34.66.64,1.22.32-.56.57-.95.77-1.37,2.95-6.27,5.92-12.52,8.81-18.81.56-1.21,1.18-1.85,2.6-1.64,1.05.15,2.14.03,3.53.03-5.29,11.32-10.48,22.43-15.82,33.85h0Z"/>
        <path class="cls-1" d="m26.36,69.98v33.54c-7.78-8.84-15.3-17.39-23.06-26.2-.07.59-.12.78-.12.97,0,7.64,0,15.28.05,22.92,0,1.22-.23,1.81-1.57,1.58-.51-.09-1.06-.01-1.66-.01v-33.68c7.78,8.81,15.38,17.41,23.21,26.27.06-.77.13-1.16.13-1.56-.01-7.31-.04-14.61-.04-21.92,0-2.33-.18-1.95,2-1.98.32,0,.65.05,1.05.08h.01Z"/>
        <path class="cls-1" d="m58.86,102.79v-32.79h3.08v14.11c.48-.34.75-.49.97-.69,4.09-3.9,8.17-7.81,12.25-11.72,2-1.91,2.68-2.12,5.94-1.61-5.62,5.38-11.11,10.64-16.79,16.08,5.91,5.46,11.8,10.9,17.68,16.34l-.15.31c-1.88-.15-3.75.51-5.53-1.27-4.22-4.24-8.68-8.24-13.04-12.33-.32-.3-.67-.56-1.24-1.04v3.11c0,3.36-.04,6.73.03,10.09.02,1.14-.29,1.62-1.47,1.44-.52-.08-1.07-.01-1.74-.01v-.02Z"/>
        <path class="cls-1" d="m95.45,99.79h15.99c0,.87.07,1.65-.04,2.41-.04.26-.51.65-.79.66-5.9.01-11.8-.02-17.7-.05-.2,0-.4-.06-.67-.1-.03-.36-.08-.68-.08-.99,0-9.97.02-19.93.03-29.9,0-1.92-.01-1.9,1.85-1.9,5.36.02,10.72.06,16.08,0,1.22-.01,1.34.52,1.34,1.48s-.13,1.51-1.34,1.49c-4.82-.07-9.64-.03-14.61-.03-.02.39-.07.83-.07,1.27,0,2.95.05,5.9-.03,8.84-.03,1.14.37,1.39,1.43,1.38,3.99-.04,7.98.05,11.97-.02,1.29-.02,1.28.68,1.28,1.56s-.15,1.42-1.32,1.4c-4.07-.08-8.15,0-12.22-.04-.87,0-1.14.25-1.12,1.13.05,3.73.02,7.47.02,11.4h0Z"/>
        <path class="cls-1" d="m212.53,103v-32.87h4.97c.03.34.1.73.1,1.13,0,10.16,0,20.33.03,30.49,0,.95-.26,1.35-1.28,1.27-1.23-.09-2.47-.02-3.82-.02Z"/>
        <path class="cls-1" d="m167.24,86.58c0,4.98-.02,9.96.02,14.94,0,1.09-.25,1.63-1.47,1.48-.9-.11-1.82-.03-2.74-.02-.67,0-.94-.29-.94-.99.04-10.25.07-20.5.05-30.74,0-1.07.37-1.38,1.37-1.29.82.07,1.67.09,2.49-.02,1.02-.13,1.29.23,1.29,1.21-.04,5.14-.02,10.29-.02,15.43h-.05,0Z"/>
        <path class="cls-1" d="m41.09,102.77v-1.52c0-10,0-20,0-30,0-.82,0-1.55,1.15-1.35.87.15,2.12-.57,2.11,1.31-.06,10-.03,20-.03,30q0,1.59-1.66,1.56h-1.56Z"/>
      </g>
    </g>
  </g>
</svg>