<?xml version="1.0" encoding="UTF-8"?>
<svg id="Layer_2" data-name="Layer 2" xmlns="http://www.w3.org/2000/svg" viewBox="0 0 268.83 37.6">
  <defs>
    <style>
      .cls-1 {
        fill: #1c252f;
      }
    </style>
  </defs>
  <g id="Layer_2-2" data-name="Layer 2">
    <g id="Layer_1-2" data-name="Layer 1-2">
      <g>
        <path class="cls-1" d="m29.4,12.62c-.47-.49-.91-.93-1.32-1.39-3.76-4.35-10.13-5.47-15.16-2.66-5.66,3.16-7.51,10.97-4.02,16.43,4.08,6.39,11.8,7.01,17.43,3.18,1.02-.69,1.88-1.62,2.88-2.35.29-.21.95-.31,1.22-.13,1.44.97,2.83,2.03,4.22,3.08.69.52.6,1.07.04,1.67-4.59,4.99-10.19,7.47-17.06,7.1-7.08-.38-12.21-3.9-15.51-9.88C-1.23,21.59-.72,12.01,4.45,6.78,7.18,4.01,9.88,1.27,13.9.48c7.96-1.57,14.59.68,19.7,7.05.88,1.09.74,1.52-.37,2.28-1.26.86-2.46,1.81-3.83,2.82h0Z"/>
        <path class="cls-1" d="m268.77,14.15h-33.1c-.5,0-.99.09-1.49.11-1.26.04-1.51-.26-1.1-1.45,1.14-3.34,3.29-5.99,5.88-8.32,4.24-3.81,9.24-4.95,14.79-4.23,7.62.99,13.1,6.69,15.08,13.38.02.07-.02.16-.06.51Z"/>
        <path class="cls-1" d="m114.54,23.56c.56-.07.99-.16,1.43-.18,1.74-.07,3.48-.06,5.22-.19.9-.07,1.46.18,1.93.97,1.51,2.56,3.68,4.36,6.55,5.2,3.97,1.17,7.65.59,10.8-2.19,1.07-.95,1.9-2.17,2.88-3.22.31-.33.76-.71,1.16-.72,1.95-.06,3.9-.04,5.85.03,1.23.04,1.43.38.97,1.46-2.27,5.38-5.92,9.55-11.44,11.6-6.91,2.57-13.27,1.18-18.94-3.49-2.96-2.44-4.9-5.56-6.41-9.28h0Z"/>
        <path class="cls-1" d="m151.36,14.08c-2.41,0-4.73.04-7.04-.04-.38-.01-.82-.49-1.08-.86-1.21-1.71-2.58-3.24-4.47-4.23-4.63-2.42-11.6-1.5-15.06,3.68-.96,1.43-2,1.83-3.62,1.59-1.18-.18-2.4-.03-3.6-.03h-1.79c1.18-3.57,3-6.39,5.54-8.88,4.4-4.3,9.61-5.63,15.63-5.08,6.36.58,15.88,8.92,15.5,13.85h-.01Z"/>
        <path class="cls-1" d="m211.71,36.66c-5.82-4.4-11.38-8.6-17.26-13.04.81-.17,1.22-.33,1.63-.33,2.32,0,4.64,0,6.96.08,1.74.06,1.88-.08,1.88-1.84,0-6.61.03-13.22.05-19.83,0-.16.05-.31.1-.62,1.99,0,3.97-.03,5.94.04.27,0,.57.47.75.78.11.19.03.48.03.73v32.62c0,.35-.05.71-.1,1.42h.02Z"/>
        <path class="cls-1" d="m74.45,23.3c-1.68,2.29-3.16,4.3-4.76,6.46h4.39c5.22.03,10.45.07,15.67.09.75,0,1.07.4,1.07,1.07-.01,1.61-.06,3.22-.1,4.83-.02.93-.69.87-1.33.86-3.94-.02-7.88-.06-11.82-.06-6.68,0-13.36.03-20.04.05-.28,0-.56-.05-1.02-.09.18-.38.27-.68.45-.92,2.86-3.7,5.75-7.37,8.59-11.08.76-.99,1.48-1.49,2.91-1.23,1.51.28,3.13-.04,4.7-.09.28,0,.56.04,1.28.09v.02Z"/>
        <path class="cls-1" d="m192.44,14.17c-1.77,0-3.53.01-5.3,0-1.2-.01-2.4-.04-3.6-.1-.63-.03-.89.17-.89.84.07,6.65.12,13.31.18,19.96.02,1.63-.06,1.74-1.73,1.76-1.25,0-2.5-.08-3.73,0-1.06.07-1.35-.3-1.34-1.32.04-6.49.02-12.99.02-19.48V2.44c0-.28.03-.57.08-1.33,5.69,4.39,11.12,8.59,16.56,12.79-.08.09-.16.19-.25.28h0Z"/>
        <path class="cls-1" d="m77.58,7.72h-11.69c-2.66,0-5.31.08-7.97.05-.35,0-.98-.41-.99-.65-.08-1.97-.05-3.95-.05-5.99h33.65c-.21.44-.31.81-.53,1.1-2.68,3.63-5.4,7.23-8.05,10.88-.74,1.01-1.55,1.44-2.84,1.3-1.51-.17-3.05-.08-4.58-.11-.31,0-.62-.06-1.34-.12,1.64-2.19,3.1-4.14,4.56-6.09-.06-.12-.12-.24-.18-.35v-.02Z"/>
        <path class="cls-1" d="m236.87,23.36c2.17-.65,3.58,0,4.87,2.22,3.32,5.74,12.3,6.12,16.46,2.98,1.16-.87,2.27-1.8,3.36-2.75.48-.42.77-.56,1.34-.08,1.14.96,2.37,1.81,3.57,2.69,1.12.81,1.2,1.13.28,2.16-4.27,4.8-9.57,7.24-16.06,7-8.24-.31-13.86-4.38-17.21-11.77-.05-.11-.09-.23-.13-.35-.75-1.97-.69-2.06,1.42-2.09h2.11,0Z"/>
      </g>
    </g>
  </g>
</svg>