<?xml version="1.0" encoding="UTF-8"?>
<svg id="Layer_2" data-name="Layer 2" xmlns="http://www.w3.org/2000/svg" viewBox="0 0 2558.14 262.48">
  <defs>
    <style>
      .cls-1 {
        fill: #1c252f;
      }
    </style>
  </defs>
  <g id="Layer_2-2" data-name="Layer 2">
    <g id="Layer_1-2" data-name="Layer 1-2">
      <g>
        <path class="cls-1" d="m2558.13,195.32c-1.16.06-2.31.15-3.46.16-7.75.03-15.49-.02-23.23.09-2.13.03-3.41-.68-4.64-2.49-12.72-18.58-25.56-37.08-38.36-55.6-2.41-3.49-4.82-6.97-7.25-10.44-.47-.67-.99-1.31-1.61-2.13-.84.73-1.57,1.36-2.3,2-5.95,5.19-11.87,10.43-17.89,15.55-1.34,1.14-1.84,2.31-1.84,4.03.05,15.28.03,30.55.03,45.83v2.64c-2.1.62-20.01.78-23.5.22-.07-1.15-.21-2.36-.21-3.57-.02-23.25-.02-46.49-.02-69.74V8.2h23.69v110.63c1.15-.89,1.88-1.37,2.52-1.96,13.04-11.87,26.06-23.75,39.09-35.62,7.38-6.72,14.77-13.42,22.22-20.06.74-.66,1.89-1.23,2.85-1.24,9.66-.08,19.32-.03,28.98,0,.12,0,.24.17.62.46-18.65,16.22-37.24,32.4-55.99,48.71.38.65.7,1.3,1.11,1.88,8.42,11.96,16.86,23.9,25.27,35.86,11.18,15.9,22.35,31.82,33.53,47.72.08.12.26.17.4.25v.5h-.01Z"/>
        <path class="cls-1" d="m1344.61,0c-.11.22-.22.45-.39.79,5.34.79,10.05,3.01,14.09,6.46,9.59,8.18,13.24,18.68,10.64,30.85-2.53,11.83-10.18,19.54-21.73,23.22-15.73,5.01-34.51-4.13-39.26-22.26-3.98-15.19,4.59-31.63,19.3-36.95,1.48-.53,3.06-.79,4.6-1.14.55-.13.97-.28.76-.96h12-.01Z"/>
        <path class="cls-1" d="m2052.73,195.35h-23.67v-87.82c0-4.83-.35-9.6-1.62-14.3-2.32-8.59-7.72-13.96-16.46-15.83-8.19-1.75-16.33-1.39-24.02,1.96-13.29,5.79-20.73,16.16-22.77,30.42-.21,1.47-.05,2.98-.05,4.48,0,26.41.02,52.81.02,79.22v1.9h-23.64V59.98c7.28-.2,14.56-.05,22.21-.1.1,6.52-.01,12.88.07,19.41,1.24-.28,1.64-1.25,2.18-1.97,3.59-4.78,7.94-8.73,12.96-11.94,7.05-4.51,14.75-7.2,23.09-8.15,8.28-.95,16.48-.69,24.5,1.65,10.46,3.04,18.39,9.13,22.66,19.4.09.23.22.44.35.66.03.06.13.08.37.21.44-.5.94-1.01,1.38-1.57,9.81-12.43,22.73-19.32,38.43-20.64,10.27-.86,20.47.1,30.22,3.91,13.14,5.14,20.18,14.92,21.89,28.71.29,2.38.39,4.8.39,7.2.03,31.89.03,63.77.03,95.66v2.97h-23.39c-.06-.79-.15-1.43-.15-2.06,0-28.48.02-56.96,0-85.45,0-4.48-.31-8.95-1.28-13.35-2.06-9.44-7.84-15.24-17.27-17.15-9.36-1.9-18.6-1.21-27.39,2.73-11.73,5.25-17.72,14.6-18.92,27.19-.15,1.57-.11,3.15-.12,4.73v83.34-.02Z"/>
        <path class="cls-1" d="m1585.98,77.84V8.18c8.01-.29,15.79-.09,23.51-.13.55,1.93.7,183.49.18,187.23h-23.37c-.46-5.76-.02-11.52-.36-17.49-.43.33-.67.43-.78.6-5.16,8.65-12.95,13.95-22.36,16.92-16.87,5.31-33.68,4.93-50.11-1.7-14.5-5.85-24.5-16.51-31.16-30.47-3.84-8.05-5.78-16.58-6.85-25.35-1.72-14.17-.22-28.02,4.88-41.37,8-20.96,23.01-34.04,45.14-38.34,15.43-3,30.5-1.54,44.73,5.68,5.88,2.98,10.86,7.06,14.95,12.21.39.49.81.95,1.58,1.87h.02Zm1.22,50.06c-.23-3.22-.35-6.46-.72-9.67-.76-6.46-2.36-12.7-5.27-18.58-5.55-11.21-14.13-18.7-26.43-21.7-6.88-1.68-13.81-1.9-20.81-.84-9.07,1.37-16.78,5.24-22.78,12.22-4.01,4.66-6.73,10.05-8.64,15.86-1.43,4.35-2.24,8.83-2.8,13.37-1.32,10.61-.73,21.06,2.78,31.2,3.91,11.26,10.69,20.23,21.83,25.3,9.16,4.17,18.8,4.87,28.59,3.05,13.04-2.43,22.28-9.94,28.07-21.72,4.41-8.97,5.99-18.57,6.19-28.49h0Z"/>
        <path class="cls-1" d="m536.7,195.38h-23.35c-.16-3.01-.04-5.97-.06-8.92-.03-2.89,0-5.77,0-9.07-.52.45-.86.64-1.03.92-6.64,10.82-16.89,16.24-28.86,18.77-14.49,3.06-28.83,2.41-42.73-3.02-13.78-5.38-23.83-14.95-30.68-27.92-4.99-9.46-7.61-19.59-8.54-30.22-1.05-11.97-.13-23.73,3.5-35.2,4.48-14.12,12.29-25.91,24.94-34.1,8.18-5.29,17.21-8.23,26.87-9.34,9.36-1.08,18.64-.66,27.74,1.85,10.6,2.93,19.87,8.04,26.78,16.84.45.57.98,1.08,1.92,2.1.18-8.22.05-15.88.07-23.53.02-7.64,0-15.28,0-22.92V8.18c7.9-.28,15.58-.1,23.44-.13v187.33h-.01Zm-22.78-68.22c.26-8.82-1.55-17.66-5.16-26.06-4.58-10.65-12.21-18.28-23.4-22.04-8.63-2.9-17.46-3.4-26.36-1.66-8.6,1.69-15.92,5.71-21.5,12.6-3.66,4.51-6.25,9.59-7.99,15.1-1.81,5.72-2.78,11.58-3.28,17.56-.87,10.45.45,20.56,4.42,30.25,4.08,9.96,10.75,17.68,20.72,22.26,8.03,3.69,16.51,4.32,25.17,3.47,5.1-.5,9.96-1.93,14.49-4.33,7.7-4.09,13.2-10.26,16.94-18.04,4.37-9.09,6.01-18.74,5.95-29.11h0Z"/>
        <path class="cls-1" d="m23.12,178.01v39.44c-2.25.77-19.43.87-23.12.15V60.02h23.01v17.93c.61-.53.95-.71,1.12-.98,5.88-9.39,14.64-14.72,25.08-17.68,9.26-2.62,18.67-3.01,28.21-2.13,7.88.73,15.42,2.63,22.5,6.14,12.64,6.26,21.68,16.04,27.66,28.7,5.54,11.71,7.62,24.12,7.58,36.99-.03,8.53-1.04,16.9-3.61,25.03-6.35,20.05-18.55,34.79-39.12,41.33-17.76,5.65-35.29,4.76-52.21-3.47-6.16-3-11.32-7.26-15.51-12.68-.35-.45-.72-.89-1.09-1.33-.16.04-.33.09-.49.13h-.01Zm87.03-50.62c.21-8.17-1.16-15.97-4.05-23.49-4-10.39-10.57-18.58-20.87-23.37-8.39-3.9-17.23-4.83-26.34-3.57-6.88.95-13.23,3.22-18.78,7.5-7.09,5.47-11.64,12.68-14.43,21.06-2.86,8.6-3.76,17.44-3.26,26.5.4,7.2,1.62,14.16,4.34,20.84,4.99,12.28,13.58,20.7,26.51,24.39,6.49,1.85,13.15,2.08,19.81,1.45,5.51-.52,10.81-1.96,15.64-4.75,9.04-5.21,14.6-13.19,17.76-22.89,2.5-7.69,3.82-15.62,3.67-23.65v-.02Z"/>
        <path class="cls-1" d="m1021.07,78.92v-18.53c1.93-.59,18.71-.75,22.36-.25.04,1.5.1,3.05.1,4.6,0,38.2-.03,76.4-.01,114.6,0,6.06.05,12.12-.74,18.15-.85,6.43-2.21,12.74-4.47,18.85-.42,1.13-1.03,1.63-2.14,1.67-.5.02-1,.04-1.5.04-6.33,0-12.66,0-18.99-.02-1.13,0-2.26-.07-3.52-.12.15-.51.16-.77.29-.96,5.08-7.49,7.45-15.93,8.19-24.8.51-6.11.38-12.27.53-18.41,0-.22-.09-.45-.19-.93-.33.35-.59.52-.72.76-5.54,10.67-14.63,16.99-25.75,20.72-8.09,2.71-16.39,3.3-24.9,2.61-8.59-.7-16.73-2.76-24.37-6.71-10.37-5.35-18.17-13.32-23.81-23.46-4.83-8.7-7.48-18.05-8.61-27.89-1.64-14.35-.22-28.36,4.99-41.86,6.49-16.84,17.56-29.46,34.81-35.92,12.87-4.82,26.15-5.74,39.55-2.74,9.75,2.19,18.13,6.97,24.57,14.78,1.05,1.28,1.96,2.68,2.94,4.02.32.44.67.85,1.4,1.77v.03Zm-83.93,48c.13,1.7.35,4.77.59,7.82.54,6.75,2,13.29,4.67,19.52,5.66,13.19,15.32,21.29,29.9,22.85,8.52.91,16.83-.11,24.54-4.06,8.86-4.54,14.56-11.95,18.31-20.95,2.9-6.96,4.39-14.23,4.84-21.76.61-10.16-.39-20.06-4.23-29.57-4.04-9.99-10.52-17.67-20.83-21.59-7.47-2.84-15.22-3.27-23.11-2.1-14.26,2.11-23.97,9.98-29.73,22.98-3.6,8.13-4.71,16.72-4.95,26.87h0Z"/>
        <path class="cls-1" d="m2300.52,195.11c-4.03,2.41-8.52,3.25-13.11,3.58-3.23.23-6.47.34-9.69-.44-7.77-1.88-12.09-6.88-13.51-14.56-.3-1.6-.47-3.22-.74-5.15-.85.76-1.52,1.33-2.16,1.94-8.14,7.84-17.63,13.33-28.64,15.98-14.56,3.51-29.04,3.54-43.27-1.64-8.78-3.2-15.65-8.69-19.81-17.23-1.95-4.01-3.1-8.24-3.31-12.68-.28-5.98-.29-11.93,1.65-17.74,2.65-7.92,7.64-13.88,14.74-18.19,6.56-3.98,13.81-6.09,21.19-7.89,9.64-2.36,19.47-3.55,29.27-4.99,5.42-.8,10.82-1.86,16.18-3.03,2.16-.47,4.28-1.37,6.27-2.36,5-2.47,7.25-6.69,7.09-12.16-.27-9.58-4.23-16.46-14.69-19.84-1.74-.56-3.52-1.07-5.32-1.34-9.47-1.41-18.92-1.39-28.27.95-3.74.94-7.24,2.44-10.33,4.83-5.51,4.25-7.86,10.12-8.74,16.76-.08.57-.14,1.15-.22,1.72-.01.07-.08.14-.12.21-1.97.57-20.15.7-23.19.14-.26-2.8.26-5.57.79-8.31,3.23-16.51,13.6-26.68,29.03-32.28,7.41-2.69,15.11-4.06,22.96-4.45,9.5-.47,18.99-.32,28.38,1.39,5.17.94,10.21,2.38,14.94,4.73,11.04,5.48,16.85,14.44,17.77,26.61.26,3.39.34,6.8.34,10.2.02,22.67,0,45.34.01,68.01,0,1.99.08,4,.43,5.95.61,3.43,2.55,5.04,6.03,5.1,1.57.03,3.14-.22,4.71-.39,1.06-.12,2.11-.34,3.31-.54v17.12h.03Zm-38.27-69.1c-.74.29-1.2.42-1.62.63-3.57,1.87-7.38,3.09-11.31,3.82-4.41.82-8.87,1.4-13.31,2.06-6.74,1-13.51,1.85-20.23,3.02-5.26.91-10.32,2.56-14.94,5.36-8.77,5.32-11.33,14.92-9.05,23.81.94,3.67,3.06,6.59,6.14,8.82,3.01,2.18,6.34,3.64,9.98,4.36,9.91,1.96,19.73,1.34,29.37-1.54,7.23-2.16,13.58-5.88,18.49-11.73,4.24-5.06,6.75-10.73,6.52-17.53-.21-6.14-.04-12.28-.03-18.42v-2.66h0Z"/>
        <path class="cls-1" d="m694.27,134.57h-106.63c-.13.49-.29.79-.29,1.09-.02,9.42,1.99,18.28,7.38,26.18,5.34,7.82,12.75,12.8,21.85,15.16,10.78,2.8,21.61,3.07,32.19-.81,10.35-3.8,16.77-11.34,19.68-21.89.15-.55.34-1.1.52-1.69h23.21c-.69,4.12-1.92,7.88-3.46,11.53-7.41,17.61-20.72,28.27-39.22,32.6-13.98,3.27-27.98,2.88-41.74-1.06-17.31-4.95-29.77-15.77-37.38-32.07-3.68-7.88-5.98-16.16-6.99-24.8-.62-5.28-1.29-10.55-.94-15.88.71-10.71,3.03-21,8.01-30.6,8.91-17.16,22.7-28.33,41.4-33.43,8.38-2.28,16.91-2.53,25.51-1.79,7.55.64,14.76,2.53,21.55,5.86,12.63,6.19,21.44,16.1,27.35,28.66,6.16,13.09,8.68,26.94,8.19,41.36-.01.4-.09.81-.19,1.59h0Zm-106.74-20.15c3.22.5,79.93.37,81.93-.16-.2-1.52-.34-3.08-.61-4.62-1.84-10.66-7.15-19.24-15.96-25.5-9.72-6.91-20.59-8.82-32.3-6.99-21.45,3.37-31.95,21.03-33.05,37.27h-.01Z"/>
        <path class="cls-1" d="m1739.52,152.63h23.26c-.11.74-.14,1.3-.28,1.84-3.93,15.37-11.91,27.84-25.96,35.94-7.46,4.3-15.58,6.64-24.08,7.74-9.58,1.24-19.12.87-28.57-1.09-19.72-4.09-34.11-15.07-42.88-33.24-3.72-7.71-5.74-15.89-6.98-24.31-.88-5.93-1.45-11.88-.95-17.87,1.61-19.28,8.56-36.1,23.36-49.09,10.1-8.87,21.98-13.9,35.38-15.33,9.28-.99,18.45-.58,27.48,1.9,14.4,3.96,25.4,12.47,33.37,24.94,6.05,9.46,9.62,19.86,11.16,30.91.77,5.49.94,11.06,1.34,16.6.06.89-.09,1.8-.16,2.98h-106.84c-.1.9-.25,1.53-.24,2.17.13,7.83,1.63,15.33,5.53,22.23,4.33,7.66,10.6,13.21,18.79,16.41,11.29,4.41,22.91,4.93,34.54,1.63,11.79-3.34,19.16-11.2,22.32-23,.11-.4.23-.79.39-1.36h.02Zm-81.45-38.12h81.75c.07-.42.15-.65.15-.89,0-.5,0-1-.07-1.49-1.36-10.67-5.97-19.63-14.36-26.46-8.81-7.18-19.04-9.82-30.31-9.06-21.43,1.46-35.56,17.61-37.17,37.9h.01Z"/>
        <path class="cls-1" d="m381.28,131.24c-.09,8.69-2.18,20.3-7.35,31.22-7.61,16.07-19.93,26.93-36.88,32.52-9.53,3.14-19.36,4.23-29.32,3.78-12.39-.56-24.23-3.37-34.9-9.97-15.2-9.41-24.06-23.27-28.26-40.34-2.4-9.77-2.99-19.68-1.97-29.66,1.05-10.33,3.67-20.23,8.74-29.39,8.88-16.05,22.46-26.04,40.16-30.36,13.98-3.41,28.11-3.37,42.02.45,22.32,6.14,36.73,20.64,43.87,42.45,2.7,8.24,3.9,17.01,3.89,29.31h0Zm-113.83-2.63c-.31,4.95.29,10.29,1.57,15.56,2.7,11.11,8.15,20.5,17.62,27.18,9.65,6.81,20.5,8.74,32.08,7.03,14.2-2.1,24.51-9.69,31.19-22.27,4.96-9.34,6.42-19.5,6.33-29.88-.06-6.55-1.13-13.03-3.2-19.33-2.44-7.4-6.13-14.05-11.97-19.24-12.89-11.47-27.87-13.92-44.02-8.79-12.43,3.95-20.6,12.78-25.49,24.66-3.23,7.85-4.5,16.1-4.12,25.07h0Z"/>
        <path class="cls-1" d="m829,99.18c-8.04.19-15.74.1-23.47.07-.23-1.05-.43-1.84-.58-2.64-1.49-7.92-6.26-13.18-13.44-16.49-3.97-1.84-8.22-2.77-12.52-3.25-8.61-.97-17.13-.34-25.41,2.38-2.88.95-5.46,2.44-7.65,4.57-5.82,5.68-5.58,14.77.57,20.1,4.25,3.69,9.37,5.75,14.71,7.12,7.89,2.03,15.86,3.76,23.82,5.52,9.59,2.12,19.23,4,28.26,8.08,4.27,1.93,8.3,4.24,11.83,7.35,6.47,5.7,9.73,12.93,10.14,21.46.31,6.53-.38,12.9-3.21,18.95-3.67,7.84-9.57,13.49-17.08,17.57-6.56,3.57-13.57,5.81-20.93,7.12-14.2,2.52-28.33,2.42-42.41-.75-6.88-1.55-13.35-4.11-19.22-8.08-10.31-6.97-16.15-16.73-18.05-28.92-.26-1.64-.35-3.3-.49-4.95-.04-.48.04-.98.08-1.64h23.33c.12.82.27,1.62.36,2.42.92,8.98,5.82,15.15,13.71,19.15,3.97,2.01,8.23,3.14,12.62,3.79,9.39,1.39,18.76,1.2,28.07-.71,4.02-.82,7.77-2.34,11.24-4.62,8.51-5.59,9.7-19.34,1.62-25.91-2.88-2.35-6.06-4.06-9.51-5.37-6.63-2.53-13.54-4.04-20.47-5.48-9.77-2.03-19.62-3.76-29.1-6.99-5.05-1.72-9.88-3.89-14.45-6.71-18.58-11.49-18.01-36.18-6.4-48.92,5.11-5.6,11.38-9.41,18.42-12.01,8.43-3.11,17.16-4.62,26.17-4.63,8.69,0,17.31.46,25.77,2.61,4.85,1.23,9.55,2.85,13.94,5.34,10.91,6.18,16.84,15.73,19.01,27.81.38,2.09.47,4.23.72,6.68v-.02Z"/>
        <path class="cls-1" d="m1787.05,60h21.67c.29,2.28.12,4.58.15,6.86.04,2.32.03,4.65.04,6.97,0,2.31,0,4.61.42,7.15.5-.68,1.03-1.34,1.5-2.04,5.04-7.46,11.49-13.3,19.7-17.14,6.03-2.82,12.4-4.38,19.01-4.84,8.76-.61,17.48-.25,26.01,2.15,15.35,4.32,24.44,14.47,27.84,29.84,1.42,6.44,1.74,12.99,1.74,19.56.02,27.49.02,54.97.02,82.46v4.38h-23.45c-.05-.54-.15-1.09-.15-1.63-.03-29.98-.06-59.95-.05-89.93,0-3.96-.61-7.76-2.08-11.43-2.76-6.9-7.69-11.68-14.76-13.87-12.47-3.86-24.59-2.49-35.98,3.75-8.87,4.86-14.01,12.78-16.66,22.37-1.29,4.67-1.82,9.42-1.81,14.28.04,24.5.02,48.99.02,73.49v2.64c-1.9.55-20.49.68-23.24.21-.55-3.86-.52-132.7.06-135.22h0Z"/>
        <path class="cls-1" d="m1197.27,195.36h-23.41c-.05-.89-.12-1.62-.12-2.34,0-29.15.03-58.3-.02-87.44,0-3.05-.14-6.18-.8-9.14-2.09-9.4-7.92-15.7-17.17-18.3-12.35-3.48-24.37-2.01-35.42,4.49-10.13,5.95-15.37,15.41-17.04,26.83-.55,3.76-.66,7.61-.67,11.41-.06,23.33-.03,46.67-.04,70v4.12c-1.75.58-19.9.79-23.68.31V60.05h22.19v20.66c.16.06.32.12.48.18.81-1.09,1.64-2.16,2.43-3.26,8.71-12.15,20.67-18.72,35.42-20.38,9.6-1.08,19.13-.7,28.48,1.9,14.44,4.01,23.34,13.43,27.25,27.75,1.61,5.9,2.22,11.91,2.22,17.99.04,29.4.04,58.79.04,88.19,0,.73-.09,1.46-.14,2.28h0Z"/>
        <path class="cls-1" d="m2334.29,60.02h21.87v28.02c1.26-.36,1.44-1.23,1.8-1.87,2.56-4.58,5.52-8.89,9-12.83,8.17-9.24,18.42-14.51,30.65-16.11,3.89-.51,7.76-.52,11.81-.37v23.24c-1.78.56-3.69.52-5.56.56-5.71.11-11.27,1.11-16.68,2.83-13.68,4.36-22.3,13.69-26.41,27.27-2.08,6.88-3.06,13.96-3.1,21.12-.1,20.09-.06,40.18-.07,60.27v3.14h-23.29c-.58-2.04-.63-132.8-.03-135.26h.01Z"/>
        <path class="cls-1" d="m157.91,195.36V60.02h22.08v27.74c.16.05.32.1.47.15.31-.4.68-.77.93-1.2,2.97-5.21,6.28-10.18,10.39-14.58,7.99-8.56,17.9-13.38,29.46-14.83,3.77-.47,7.61-.46,11.78-.69.08,8.03,0,15.69.05,23.71-1.78.12-3.4.3-5.03.33-5.45.1-10.77.96-15.98,2.5-13.64,4.03-22.61,12.84-27.09,26.28-2.55,7.65-3.5,15.53-3.51,23.54-.03,19.76,0,39.53,0,59.29v3.11h-23.55Z"/>
        <path class="cls-1" d="m886.1,195.33h-23.17V60.03h23.17v135.3Z"/>
        <path class="cls-1" d="m1369.68,231.03c.47,16.54-13.34,30.76-29.71,31.42-20.03.8-32.79-15.53-32.99-30.74-.22-16.12,12.84-31.65,31.32-31.73,18.42-.08,31.92,15.59,31.39,31.05h-.01Z"/>
        <path class="cls-1" d="m1369.69,131.82c.3,15.73-12.88,31.07-31.36,31.08-17.95,0-31.68-15.04-31.31-31.95.38-17.66,15.44-30.69,31.41-30.59,17.28.1,31.7,14.55,31.26,31.47h0Z"/>
        <path class="cls-1" d="m862.93,35.24V8.18h23.17v26.9c-1.77.55-19.39.69-23.17.16Z"/>
      </g>
    </g>
  </g>
</svg>