<?xml version="1.0" encoding="UTF-8"?>
<svg id="Layer_2" data-name="Layer 2" xmlns="http://www.w3.org/2000/svg" viewBox="0 0 224.4 97.84">
  <g id="Layer_1-2" data-name="Layer 1">
    <g>
      <path d="m176.98,74.46v-19.06c-.07,0-.15,0-.22-.01-.77,1.4-1.49,2.82-2.31,4.18-5.22,8.66-12.85,14.15-22.68,16.26-6.93,1.49-13.98,1.4-20.81-.76-7.53-2.37-13.72-6.73-18.43-13.13-.54-.74-.33-1.27.03-1.91,3.52-6.3,5.15-13.09,5.04-20.26-.09-6.18-1.66-12.04-4.85-17.39-.49-.83-.41-1.38.15-2.11,5.13-6.61,11.91-10.85,19.9-12.86,14.42-3.63,27.11-.24,37.67,10.36,2.58,2.59,4.62,5.62,6.45,8.95.03-.36.08-.72.08-1.08,0-5.35.02-10.7-.06-16.04-.02-1.2.38-1.47,1.49-1.46,4.82.05,9.63.05,14.45,0,1.03-.01,1.39.3,1.37,1.33-.06,3.44,0,6.88-.11,10.32-.03.8-.38,1.71-.87,2.35-4.77,6.11-9.6,12.18-14.44,18.24-.52.66-.5,1.13-.02,1.74,4.85,6.1,9.7,12.2,14.51,18.33.45.58.83,1.39.84,2.1.08,3.69.02,7.38.02,11.07,0,.59-.03,1.02-.85,1.01-5.19-.04-10.38-.04-15.57-.06-.2,0-.39-.05-.78-.11Zm-15.35-33.89c.28-8.83-7.78-17.29-17.85-17.84-10.88-.59-19.85,8.28-19.71,17.55.18,11.23,7.82,19.83,18.89,19.8,10.18-.03,18.64-8.83,18.67-19.52Z"/>
      <path d="m61.09,55.23c-5.27,0-10.37-.01-15.48.02-.7,0-1.01-.23-1.26-.88-1.88-5.06-2.39-10.31-2.29-15.64.21-10.52,5.06-18.79,13.28-24.85,12.26-9.05,25.72-10.34,39.64-4.18,7.74,3.43,13.56,9.16,17.25,16.89,2.85,5.98,3.53,12.23,2.7,18.77-.93,7.32-3.52,13.86-8.44,19.4-5.69,6.41-12.81,10.31-21.32,11.5-7.25,1.01-14.41.59-21.31-2.11-1.19-.47-2.38-.98-3.5-1.6-.32-.18-.63-.78-.6-1.16.38-4.92.82-9.83,1.25-14.74.04-.49.05-.98.07-1.41Zm36.24-14.52c.36-9-7.92-17.36-17.35-17.94-11.67-.72-19.72,7.98-20.11,16.72-.53,12,7.84,20.2,17.9,20.57,10.95.41,19.08-7.66,19.56-19.35Z"/>
      <path d="m.01,0h17.7c0,.67,0,1.27,0,1.88-.02,12.77-.02,25.53-.06,38.3-.02,6.64,2.34,12.21,7.66,16.22,5.65,4.26,11.93,4.87,18.44,2.09,1.57-.67,3.09-1.04,4.8-.98,2.9.1,5.81.06,8.72.09.41,0,.81.03,1.34.06-.11,1.64-.21,3.19-.33,4.74-.17,2.15-.42,4.29-.53,6.44-.07,1.47-.68,2.38-1.98,3.13-5.57,3.2-11.6,4.58-17.96,4.75-8.07.21-15.65-1.45-22.46-5.99-8.09-5.4-12.89-13.01-14.75-22.42C-.03,45.04.05,41.62.03,38.28-.03,25.97.01,13.66.01,1.35.01.95.01.54.01,0Z"/>
      <path d="m211.38,3.69c4.4,3.51,8.64,6.89,12.98,10.36-.49.68-.95,1.36-1.46,1.99-3.24,3.99-6.51,7.95-9.72,11.97-3.26,4.08-6.45,8.21-9.7,12.3-.65.82-.6,1.38.08,2.22,4.8,5.93,9.52,11.92,14.27,17.88,2.17,2.72,4.37,5.41,6.56,8.13-4.34,3.47-8.76,7.01-13.28,10.63-.7-.96-1.3-1.85-1.96-2.68-5.69-7.18-11.41-14.34-17.09-21.52-3.42-4.32-6.78-8.69-10.18-13.02-.45-.57-.54-1-.04-1.62,4.63-5.74,9.23-11.51,13.83-17.28,4.55-5.7,9.09-11.41,13.65-17.11.62-.77,1.33-1.46,2.05-2.25Z"/>
      <path d="m40.5,91.4c.06,3.43-2.68,6.21-6.19,6.28-3.81.08-6.8-2.71-6.84-6.36-.03-3.61,2.87-6.52,6.55-6.58,3.71-.06,6.41,2.71,6.48,6.66Zm-11.58-.09c0,2.75,2.42,5.11,5.2,5.1,2.71,0,5.05-2.39,5.03-5.14-.02-2.82-2.31-5.14-5.13-5.19-2.71-.05-5.11,2.41-5.1,5.22Z"/>
      <path d="m115.44,91.33c0,1.7.04,3.4-.03,5.09-.02.41-.42.81-.65,1.21-.29-.42-.8-.83-.84-1.27-.12-1.23-.09-2.48-.02-3.72.04-.88-.31-1.19-1.15-1.17-1.37.03-2.74.04-4.11,0-.76-.03-1.05.26-1.03,1,.02,1.32.06,2.65-.02,3.97-.02.4-.35,1.07-.61,1.12-.77.13-.75-.56-.75-1.1,0-3.4-.02-6.79.05-10.18,0-.45.47-.9.72-1.35.2.44.52.88.56,1.34.09.9.03,1.82.01,2.73-.01.76.28,1.13,1.1,1.11,1.45-.04,2.9.05,4.35-.04.31-.02.8-.53.83-.85.1-1.11-.02-2.24.06-3.35.02-.33.43-.63.66-.95.29.32.8.63.82.96.08,1.82.04,3.64.04,5.46h.02Z"/>
      <path d="m147.38,97.41c1.85-4.21,3.7-8.41,5.63-12.79.28.44.58.77.75,1.16,1.53,3.58,3.04,7.16,4.52,10.75.12.29-.05.7-.08,1.06-.35-.14-.87-.18-1.03-.44-.43-.7-.75-1.47-1.03-2.25-.27-.74-.75-1.02-1.52-.98-.91.04-1.85.16-2.73,0-1.27-.25-1.72.42-2.06,1.41-.16.47-.28.99-.58,1.36-.37.45-.9.78-1.36,1.15-.17-.14-.33-.29-.5-.43Zm5.76-9.46c-.11.03-.22.05-.33.08-.56,1.51-1.13,3.02-1.73,4.63h4.06c-.73-1.72-1.36-3.21-1.99-4.71Z"/>
      <path d="m90.43,87.44c-3.86-1.8-6.02-1.56-7.78.79-1.47,1.97-1.4,4.52.19,6.29,2.05,2.28,4.06,2.44,7.46.52.42.92.22,1.56-.66,2.02-3.7,1.94-8.56-.42-9.29-4.54-.45-2.53.28-4.71,2.3-6.33,2.01-1.61,4.27-1.87,6.68-.97,1.02.38,1.38,1.08,1.1,2.23Z"/>
      <path d="m65.31,95.3c.2.73.01,1.32-.81,1.73-2.62,1.33-5.98.65-7.9-1.64-2.1-2.51-2.13-5.71-.07-8.3,1.78-2.24,5.21-3.05,7.78-1.84.96.45,1.24,1.19,1.04,2.21-4.31-1.71-6.05-1.55-7.83.68-1.41,1.77-1.49,4.29-.11,6.11.93,1.22,2.15,2.27,3.73,2.15,1.38-.1,2.72-.71,4.18-1.11Z"/>
      <path d="m173.36,91.16c0-1.66-.05-3.32.03-4.97.02-.46.39-1.22.69-1.27.81-.13.81.6.81,1.2-.03,2.9-.02,5.8-.12,8.7-.03.98.21,1.4,1.22,1.3.49-.05,1.02-.08,1.48.05.3.09.51.49.76.75-.24.22-.48.62-.73.63-1.16.05-2.33.05-3.48-.08-.24-.03-.59-.62-.6-.96-.06-1.78-.03-3.56-.03-5.34-.01,0-.02,0-.04,0Z"/>
      <path d="m131.3,91.33c0-1.78-.04-3.56.03-5.33.02-.4.42-.78.64-1.17.29.4.82.79.83,1.19.06,3.47.06,6.95,0,10.43,0,.38-.53.75-.81,1.13-.21-.39-.57-.76-.59-1.16-.07-1.69-.03-3.39-.03-5.09-.02,0-.05,0-.07,0Z"/>
      <path d="m194.37,91.3c0,1.74.04,3.48-.03,5.22-.02.36-.46.7-.71,1.05-.26-.34-.75-.67-.75-1.02-.04-3.56-.03-7.12.03-10.68,0-.34.45-.66.68-.99.25.32.7.63.71.96.07,1.82.03,3.64.03,5.46h.03Z"/>
    </g>
  </g>
</svg>