<?xml version="1.0" encoding="UTF-8"?>
<svg id="Layer_2" data-name="Layer 2" xmlns="http://www.w3.org/2000/svg" viewBox="0 0 215.01 38.62">
  <defs>
    <style>
      .cls-1 {
        fill: #fff;
      }
    </style>
  </defs>
  <g id="Layer_1-2" data-name="Layer 1">
    <g>
      <path class="cls-1" d="m95.66,38.21c-.54-1.66-.17-3.24.19-4.73.71-2.95,1.61-5.85,2.45-8.76.81-2.82,1.34-5.66.81-8.62-.06-.34.21-.94.5-1.09,1.03-.52,2.11-1.01,3.22-1.3,1.44-.38,2.12.21,2.2,1.69.04.77,0,1.54,0,2.52,1.17-.84,2.09-1.67,3.15-2.25,1.63-.9,3.29-1.78,5.03-2.39,2.01-.7,3.57.31,4.19,2.37.18.58.34,1.17.59,2.01.69-.58,1.23-1.02,1.75-1.46,2.26-1.94,4.78-3.12,7.85-2.92.75.05,1.21.28,1.57.95.79,1.47,1.03,3.04.6,4.59-.63,2.32-1.46,4.58-2.21,6.87-.39,1.18-.72,2.39-1.16,3.55-.65,1.73-.34,3.27.82,4.65.63.75.43,1.2-.3,1.7-1.88,1.29-3.9,2.19-6.33,2.51-.06-.5-.18-.97-.17-1.44.02-3.84,1.19-7.43,2.34-11.05.79-2.48,1.1-5.1,1.61-7.66.2-1.01-.2-1.44-1.28-1.39-1.66.08-3,.77-3.97,2.05-2.81,3.71-4.7,7.81-5.19,12.5-.1.98-.39,1.96-.69,2.91-.67,2.09-1.88,2.94-4.04,3.09-1.13.08-1.42-.36-1.17-1.39.77-3.19,1.47-6.39,2.3-9.56.73-2.79,1.25-5.59,1.15-8.5-.03-.96-.3-1.21-1.28-.99-2.37.55-4.12,1.88-5.04,4.07-.89,2.13-1.5,4.39-2.25,6.58-.76,2.19-1.4,4.44-2.35,6.55-.93,2.07-2.64,3.46-4.9,4.32Z"/>
      <path class="cls-1" d="m36.76,1.81c1.54-.57,2.86-1.06,4.17-1.54.27-.1.55-.19.84-.23,1.22-.16,1.4.08,1.09,1.28-1.37,5.35-2.72,10.71-4.07,16.07-.03.11.02.23.04.55.39-.16.72-.25,1.01-.42,1.17-.72,2.34-1.44,3.47-2.23,1.71-1.2,3.63-1.61,5.66-1.65,2.16-.04,3.27,1.05,3.45,3.23.23,2.82-.52,5.42-1.56,8-.68,1.69-1.19,3.45-1.69,5.21-.48,1.68.12,3.02,1.52,4.02.13.1.25.22.37.33.02.02.02.07.03.11-1.68,2.27-5.04,3.64-7.27,3.1-1.1-.27-1.34-.83-1.05-1.8,1.03-3.46,2.15-6.9,3.07-10.39.7-2.65,1.15-5.36,1.69-8.05.18-.88-.47-.81-1.02-.77-2.92.23-5.17,1.67-6.58,4.16-1.12,1.98-1.91,4.14-2.79,6.24-.75,1.8-1.32,3.69-2.16,5.44-.61,1.26-1.46,2.42-2.36,3.49-.38.45-1.43.93-1.73.73-.56-.37-1.1-1.23-1.1-1.89.01-1.65.15-3.35.58-4.93,1.01-3.73,2.17-7.42,3.38-11.09q2.86-8.73,3.01-16.97Z"/>
      <path class="cls-1" d="m27.12,29.74c-2,5.3-6.02,7.46-11.15,7.85-4.23.32-8.13-.74-11.31-3.67C.6,30.18-.6,25.43.27,20.14,2.29,7.81,13.53-.92,25.99.11c1.48.12,2.96.46,4.42.79,1.21.27,1.31.73.51,1.73-1.92,2.41-4.4,3.25-7.58,1.86-6.05-2.65-13.37,1.24-15.84,6.04-3.26,6.35-2.98,12.66,1.01,18.57,3.28,4.86,8.3,6.05,13.6,3.5,1.67-.8,3.23-1.83,5.01-2.86Z"/>
      <path class="cls-1" d="m69.16,38.62c-.36-1.77-.64-3.13-.97-4.74-1.23.67-2.28,1.23-3.31,1.8-2.07,1.16-4.05,2.54-6.62,2.17-.08-.01-.17-.01-.25-.02-2.65-.33-2.68-.39-2.85-3.05-.24-3.82,0-7.58,1.54-11.15,1.48-3.42,3.97-5.9,7.23-7.66,3.39-1.82,7.05-2.74,10.84-3.14,2.21-.24,3.37.67,3.37,2.92,0,1.55-.36,3.14-.83,4.62-.7,2.22-1.7,4.34-2.43,6.55-.38,1.17-.53,2.43-.64,3.67-.1,1.2.22,2.35,1.24,3.12,1.01.78.68,1.45-.19,1.9-1.97,1.03-3.99,1.96-6.14,3Zm3.16-22.25c-1.24,0-2.31-.03-3.37,0-4.1.13-6.92,2.21-8.09,6.16-.95,3.18-1.12,6.46-.69,9.76.11.83.66.83,1.26.86,4.26.18,7.09-1.65,8.44-5.73.69-2.08,1.06-4.27,1.54-6.41.33-1.48.59-2.98.92-4.65Z"/>
      <path class="cls-1" d="m155.36,12.61c-.02,4.72-1.05,9.19-2.51,13.6-.41,1.23-.38,2.6-.61,3.89-.15.84-.27,1.73-.65,2.47-.47.92-.44,1.44.61,1.79.41.14.77.44,1.36.79-.66.46-1.14.82-1.64,1.14-.63.4-1.31.73-1.91,1.16-1.8,1.3-3.85.37-4.17-1.9-.09-.64-.24-1.27-.41-2.19-.73.46-1.25.76-1.73,1.1-1.9,1.33-3.66,2.91-6.02,3.44-2.51.56-4.6-.8-4.87-3.33-.74-6.89.85-12.96,6.64-17.3,3.75-2.82,8.05-4.27,12.77-4.43,1.03-.03,2.06-.14,3.17-.22Zm-5.11,3.69c-1.15,0-2.1,0-3.05,0-4.4.05-7.66,2.49-9.04,6.68-.95,2.89-.84,5.79-.38,8.74.18,1.15.68,1.4,1.72,1.37,3.8-.12,6.22-2.22,7.56-5.53.93-2.29,1.46-4.75,2.13-7.14.37-1.3.67-2.62,1.06-4.13Z"/>
      <path class="cls-1" d="m172.84,37.74c-.51-2.71-.76-5.37.12-8.02.82-2.48,1.83-4.92,2.49-7.44.46-1.77.47-3.66.7-5.61-2.05.09-3.6.62-4.93,1.66-4.23,3.31-6.73,7.6-7.29,12.99-.13,1.24-.3,2.48-.61,3.69-.47,1.84-2.27,2.84-4.08,2.26-.29-.09-.59-.86-.53-1.26.25-1.64.71-3.25.97-4.89.54-3.37.82-6.78,1.55-10.1.43-1.94,1.42-3.8,2.41-5.55.44-.77,1.46-1.32,2.34-1.69,1.11-.47,1.84.08,1.96,1.32.08.78.01,1.56.01,2.56.62-.4,1.08-.79,1.61-1.05,2.38-1.17,4.75-2.39,7.19-3.44,2.15-.93,4.28.36,4.35,2.72.05,1.75-.17,3.57-.61,5.27-.74,2.81-1.75,5.54-2.65,8.3-.54,1.65-.14,3.08.92,4.43,1.02,1.3.9,1.62-.68,2.16-1.69.57-3.39,1.09-5.25,1.69Z"/>
      <path class="cls-1" d="m215.01,11.6c-.45.4-.79.78-1.19,1.06-2.45,1.71-5.3,2.16-8.17,2.37-2.94.22-5.91.26-8.86.26-1.13,0-1.73.42-2.25,1.36-2.17,3.95-3.44,8.19-4.12,12.63-.18,1.19-.35,2.39-.56,3.58-.13.74.17,1.09.88,1.19.74.11,1.47.25,2.21.38-.15,2.37-3.86,3.69-7.97,2.78-.35-3.34.13-6.62,1.03-9.83.89-3.16,2.01-6.25,2.92-9.41.67-2.33.58-2.36-1.77-2.58-.27-.03-.54-.07-1.25-.15,3.94-1.73,4.62-5.19,5.67-8.4.7-2.15,1.43-4.29,3.22-5.81.49-.41,1.35-.9,1.79-.72.46.18.86,1.13.84,1.73-.04,1.27-.3,2.54-.61,3.78-.4,1.57-.97,3.09-1.4,4.64-.23.84.14,1.29,1.04,1.46,3.01.56,5.97.12,8.95-.22,3.12-.36,6.22-1.12,9.61-.08Z"/>
      <path class="cls-1" d="m85.14,15.1c1.35-.44,2.75-.95,4.19-1.32.37-.1.91.15,1.28.39.36.23.61.65,1.08,1.18,8.28-8.96,18.32-12.64,30.39-10.49-.61,2.39-2.47,3.85-5.05,3.92-1.83.05-3.66-.08-5.48-.22-7.19-.54-12.93,2.35-17.36,7.76-3.65,4.44-6.28,9.48-7.33,15.24-.33,1.81-.93,3.55-2.49,4.76-1.18.91-2.44.66-2.63-.79-.2-1.6-.06-3.31.31-4.89.58-2.5,1.52-4.92,2.23-7.4.37-1.31.67-2.67.82-4.03.14-1.31.03-2.64.03-4.12Z"/>
    </g>
  </g>
</svg>