<?xml version="1.0" encoding="UTF-8"?>
<svg id="Layer_2" data-name="Layer 2" xmlns="http://www.w3.org/2000/svg" viewBox="0 0 144.9 160.24">
  <defs>
    <style>
      .cls-1 {
        fill: #fff;
        fill-rule: evenodd;
      }
    </style>
  </defs>
  <g id="Layer_1-2" data-name="Layer 1">
    <path class="cls-1" d="m0,139.62s43.37-56.59,3.7-92.55c0,0,6.87-13.75,21.15-20.63,0,0,9.52,26.44,32.26,42.31,0,0-8.46-33.85-25.91-43.36,0,0,12.69-21.15,27.5-25.39,0,0-6.35,16.39.53,31.73l14.81,39.14S100.48,31.73,94.66,2.11c0,0,22.21,17.98,25.91,25.39,0,0-12.16,1.59-17.98,17.45-5.71,15.58-19.04,42.84-19.04,42.84,0,0,17.98,13.22,24.86,21.15,0,0-12.16-55.53,15.87-75.63,0,0,14.81,6.35,19.57,13.75,0,0-26.44,12.16-19.57,50.24,7.15,39.61,20.63,39.14,20.63,39.14,0,0-23.27,22.74-27.5,23.8,0,0,0-32.26-37.02-60.29l-.53,40.72s7.93,12.16,9.52,12.69c1.59.53-15.87,5.29-37.55,0,0,0,11.1-12.16,10.58-21.15-.53-8.99-.53-42.31-.53-42.31,0,0-26.97-23.27-30.15-28.03,0,0,10.05,30.15-6.88,82.5l-1.06,15.34S1.59,144.9,0,139.62h0Z"/>
  </g>
</svg>